<?xml version="1.0" encoding="UTF-8"?>
<!DOCTYPE svg PUBLIC "-//W3C//DTD SVG 1.1//EN" "http://www.w3.org/Graphics/SVG/1.1/DTD/svg11.dtd">
<svg xmlns="http://www.w3.org/2000/svg" version="1.1" width="920px" height="960px" style="shape-rendering:geometricPrecision; text-rendering:geometricPrecision; image-rendering:optimizeQuality; fill-rule:evenodd; clip-rule:evenodd" xmlns:xlink="http://www.w3.org/1999/xlink">
<g><path style="opacity:1" fill="#0a0a0a" d="M 235.5,256.5 C 233.825,259.507 233.159,262.84 233.5,266.5C 230.844,301.165 230.844,335.832 233.5,370.5C 233.116,374.489 233.783,378.155 235.5,381.5C 244.431,428.313 261.764,471.646 287.5,511.5C 287.427,513.027 288.094,514.027 289.5,514.5C 340.699,588.466 410.032,636.799 497.5,659.5C 499.438,661.163 501.772,661.829 504.5,661.5C 519.4,664.238 534.4,666.238 549.5,667.5C 571.835,670.126 594.168,670.126 616.5,667.5C 621.141,666.873 625.807,666.54 630.5,666.5C 636.216,666.773 641.549,665.773 646.5,663.5C 699.918,653.096 748.251,631.596 791.5,599C 807.465,585.371 823.131,571.371 838.5,557C 842.402,553.633 846.902,551.466 852,550.5C 858.729,552.282 861.062,556.615 859,563.5C 842.865,607.786 820.532,648.452 792,685.5C 764.011,717.489 732.845,745.989 698.5,771C 616.898,823.9 527.564,846.067 430.5,837.5C 423.399,835.772 416.066,834.772 408.5,834.5C 397.636,833.394 386.97,831.394 376.5,828.5C 374.485,827.076 372.152,826.41 369.5,826.5C 366.572,826.435 363.905,825.768 361.5,824.5C 359.485,823.076 357.152,822.41 354.5,822.5C 235.648,785.153 149.481,710.153 96,597.5C 85.6707,575.345 77.8374,552.345 72.5,528.5C 72.5905,525.848 71.9238,523.515 70.5,521.5C 67.0344,508.826 64.701,495.826 63.5,482.5C 63.7709,477.566 63.1042,472.9 61.5,468.5C 58.8779,442.147 58.8779,415.813 61.5,389.5C 63.2354,382.736 64.2354,375.736 64.5,368.5C 65.4969,357.852 67.4969,347.519 70.5,337.5C 71.9238,335.485 72.5905,333.152 72.5,330.5C 84.7799,279.621 105.947,232.954 136,190.5C 141.031,183.978 146.197,177.644 151.5,171.5C 152.906,171.027 153.573,170.027 153.5,168.5C 159.756,159.575 167.089,151.575 175.5,144.5C 177.587,143.415 178.92,141.749 179.5,139.5C 181.404,139.262 182.738,138.262 183.5,136.5C 225.098,95.3387 273.431,64.1721 328.5,43C 333.599,40.5168 338.932,39.5168 344.5,40C 347.401,41.8998 349.068,44.5665 349.5,48C 348.332,52.1682 346.499,56.0016 344,59.5C 316.804,85.6785 293.804,115.012 275,147.5C 256.178,181.799 243.012,218.133 235.5,256.5 Z M 289.5,89.5 C 288.094,89.9731 287.427,90.9731 287.5,92.5C 285.147,94.8599 283.147,97.5265 281.5,100.5C 280.094,100.973 279.427,101.973 279.5,103.5C 259.152,130.856 243.485,160.856 232.5,193.5C 230.935,195.509 229.935,197.843 229.5,200.5C 227.431,206.376 225.764,212.376 224.5,218.5C 223.076,220.515 222.41,222.848 222.5,225.5C 218.931,236.462 216.598,247.796 215.5,259.5C 213.678,266.251 212.678,273.251 212.5,280.5C 210.508,301.4 210.008,322.4 211,343.5C 211.401,351.03 212.234,358.363 213.5,365.5C 213.438,370.076 214.105,374.409 215.5,378.5C 221.652,417.118 233.652,453.784 251.5,488.5C 251.932,489.71 252.599,490.71 253.5,491.5C 304.107,584.089 380.107,645.422 481.5,675.5C 483.515,676.924 485.848,677.59 488.5,677.5C 497.829,680.578 507.496,682.578 517.5,683.5C 524.251,685.322 531.251,686.322 538.5,686.5C 571.4,690.683 604.4,690.349 637.5,685.5C 640.373,685.198 643.039,684.531 645.5,683.5C 693.572,674.955 738.239,657.788 779.5,632C 793.065,623.06 806.398,613.894 819.5,604.5C 815.833,611.833 812.167,619.167 808.5,626.5C 807.094,626.973 806.427,627.973 806.5,629.5C 805.662,629.842 805.328,630.508 805.5,631.5C 804.094,631.973 803.427,632.973 803.5,634.5C 795.253,646.756 786.586,658.756 777.5,670.5C 776.094,670.973 775.427,671.973 775.5,673.5C 774.5,673.833 773.833,674.5 773.5,675.5C 772.094,675.973 771.427,676.973 771.5,678.5C 763.61,686.602 755.943,694.935 748.5,703.5C 746.086,704.911 744.419,706.911 743.5,709.5C 694.59,755.666 637.59,788 572.5,806.5C 569.848,806.41 567.515,807.076 565.5,808.5C 557.082,809.784 548.749,811.45 540.5,813.5C 531.978,814.477 523.645,815.81 515.5,817.5C 483.466,820.351 451.466,820.018 419.5,816.5C 415.409,815.105 411.076,814.438 406.5,814.5C 402.64,813.196 398.64,812.529 394.5,812.5C 392.401,811.388 390.067,810.721 387.5,810.5C 306.554,792.705 237.887,753.705 181.5,693.5C 181.262,691.596 180.262,690.262 178.5,689.5C 170.803,680.142 163.137,670.809 155.5,661.5C 155.573,659.973 154.906,658.973 153.5,658.5C 151.646,654.779 149.313,651.446 146.5,648.5C 146.573,646.973 145.906,645.973 144.5,645.5C 125.063,614.627 109.397,581.96 97.5,547.5C 97.2766,543.838 96.2766,540.505 94.5,537.5C 94.7678,535.901 94.4345,534.568 93.5,533.5C 93.5905,530.848 92.9238,528.515 91.5,526.5C 89.1663,514.499 86.833,502.499 84.5,490.5C 84.1916,486.64 83.5249,482.974 82.5,479.5C 81.4215,466.828 80.4215,454.161 79.5,441.5C 79.5118,426.824 79.8452,412.158 80.5,397.5C 81.9134,386.526 83.2467,375.526 84.5,364.5C 85.475,361.689 86.1417,358.689 86.5,355.5C 109.767,245.717 168.1,160.217 261.5,99C 272.445,92.0034 283.779,86.0034 295.5,81C 293.28,83.7128 291.28,86.5461 289.5,89.5 Z"/></g>
<g><path style="opacity:1" fill="#585858" d="M 289.5,89.5 C 289.573,91.0269 288.906,92.0269 287.5,92.5C 287.427,90.9731 288.094,89.9731 289.5,89.5 Z"/></g>
<g><path style="opacity:1" fill="#535353" d="M 281.5,100.5 C 281.573,102.027 280.906,103.027 279.5,103.5C 279.427,101.973 280.094,100.973 281.5,100.5 Z"/></g>
<g><path style="opacity:1" fill="#535353" d="M 183.5,136.5 C 182.738,138.262 181.404,139.262 179.5,139.5C 180.262,137.738 181.596,136.738 183.5,136.5 Z"/></g>
<g><path style="opacity:1" fill="#5b5b5b" d="M 179.5,139.5 C 178.92,141.749 177.587,143.415 175.5,144.5C 176.08,142.251 177.413,140.585 179.5,139.5 Z"/></g>
<g><path style="opacity:1" fill="#525252" d="M 153.5,168.5 C 153.573,170.027 152.906,171.027 151.5,171.5C 151.427,169.973 152.094,168.973 153.5,168.5 Z"/></g>
<g><path style="opacity:1" fill="#424242" d="M 232.5,193.5 C 232.834,196.491 231.834,198.824 229.5,200.5C 229.935,197.843 230.935,195.509 232.5,193.5 Z"/></g>
<g><path style="opacity:1" fill="#454545" d="M 224.5,218.5 C 224.59,221.152 223.924,223.485 222.5,225.5C 222.41,222.848 223.076,220.515 224.5,218.5 Z"/></g>
<g><path style="opacity:1" fill="#636363" d="M 235.5,256.5 C 235.247,260.04 234.581,263.373 233.5,266.5C 233.159,262.84 233.825,259.507 235.5,256.5 Z"/></g>
<g><path style="opacity:1" fill="#343434" d="M 215.5,259.5 C 215.235,266.736 214.235,273.736 212.5,280.5C 212.678,273.251 213.678,266.251 215.5,259.5 Z"/></g>
<g><path style="opacity:1" fill="#4d4d4d" d="M 72.5,330.5 C 72.5905,333.152 71.9238,335.485 70.5,337.5C 70.4095,334.848 71.0762,332.515 72.5,330.5 Z"/></g>
<g><path style="opacity:1" fill="#4c4c4c" d="M 86.5,355.5 C 86.1417,358.689 85.475,361.689 84.5,364.5C 84.0679,361.123 84.7345,358.123 86.5,355.5 Z"/></g>
<g><path style="opacity:1" fill="#474747" d="M 213.5,365.5 C 214.895,369.591 215.562,373.924 215.5,378.5C 214.105,374.409 213.438,370.076 213.5,365.5 Z"/></g>
<g><path style="opacity:1" fill="#494949" d="M 233.5,370.5 C 234.525,373.974 235.192,377.64 235.5,381.5C 233.783,378.155 233.116,374.489 233.5,370.5 Z"/></g>
<g><path style="opacity:1" fill="#404040" d="M 64.5,368.5 C 64.2354,375.736 63.2354,382.736 61.5,389.5C 61.6784,382.251 62.6784,375.251 64.5,368.5 Z"/></g>
<g><path style="opacity:1" fill="#464646" d="M 80.5,397.5 C 79.8452,412.158 79.5118,426.824 79.5,441.5C 78.8339,436.344 78.5006,431.011 78.5,425.5C 78.417,415.961 79.0836,406.627 80.5,397.5 Z"/></g>
<g><path style="opacity:1" fill="#5b5b5b" d="M 61.5,468.5 C 63.1042,472.9 63.7709,477.566 63.5,482.5C 62.3563,478.036 61.6896,473.37 61.5,468.5 Z"/></g>
<g><path style="opacity:1" fill="#4a4a4a" d="M 82.5,479.5 C 83.5249,482.974 84.1916,486.64 84.5,490.5C 82.783,487.155 82.1164,483.489 82.5,479.5 Z"/></g>
<g><path style="opacity:1" fill="#555555" d="M 251.5,488.5 C 253.048,488.821 253.715,489.821 253.5,491.5C 252.599,490.71 251.932,489.71 251.5,488.5 Z"/></g>
<g><path style="opacity:1" fill="#545454" d="M 287.5,511.5 C 288.906,511.973 289.573,512.973 289.5,514.5C 288.094,514.027 287.427,513.027 287.5,511.5 Z"/></g>
<g><path style="opacity:1" fill="#535353" d="M 70.5,521.5 C 71.9238,523.515 72.5905,525.848 72.5,528.5C 71.0762,526.485 70.4095,524.152 70.5,521.5 Z"/></g>
<g><path style="opacity:1" fill="#474747" d="M 91.5,526.5 C 92.9238,528.515 93.5905,530.848 93.5,533.5C 92.0762,531.485 91.4095,529.152 91.5,526.5 Z"/></g>
<g><path style="opacity:1" fill="#3c3c3c" d="M 94.5,537.5 C 96.2766,540.505 97.2766,543.838 97.5,547.5C 95.7234,544.495 94.7234,541.162 94.5,537.5 Z"/></g>
<g><path style="opacity:1" fill="#565656" d="M 808.5,626.5 C 808.573,628.027 807.906,629.027 806.5,629.5C 806.427,627.973 807.094,626.973 808.5,626.5 Z"/></g>
<g><path style="opacity:1" fill="#585858" d="M 805.5,631.5 C 805.573,633.027 804.906,634.027 803.5,634.5C 803.427,632.973 804.094,631.973 805.5,631.5 Z"/></g>
<g><path style="opacity:1" fill="#5e5e5e" d="M 144.5,645.5 C 145.906,645.973 146.573,646.973 146.5,648.5C 145.094,648.027 144.427,647.027 144.5,645.5 Z"/></g>
<g><path style="opacity:1" fill="#545454" d="M 153.5,658.5 C 154.906,658.973 155.573,659.973 155.5,661.5C 154.094,661.027 153.427,660.027 153.5,658.5 Z"/></g>
<g><path style="opacity:1" fill="#575757" d="M 497.5,659.5 C 500.067,659.721 502.401,660.388 504.5,661.5C 501.772,661.829 499.438,661.163 497.5,659.5 Z"/></g>
<g><path style="opacity:1" fill="#323232" d="M 646.5,663.5 C 641.549,665.773 636.216,666.773 630.5,666.5C 635.63,665.087 640.963,664.087 646.5,663.5 Z"/></g>
<g><path style="opacity:1" fill="#505050" d="M 549.5,667.5 C 571.835,668.741 594.168,668.741 616.5,667.5C 594.168,670.126 571.835,670.126 549.5,667.5 Z"/></g>
<g><path style="opacity:1" fill="#585858" d="M 777.5,670.5 C 777.573,672.027 776.906,673.027 775.5,673.5C 775.427,671.973 776.094,670.973 777.5,670.5 Z"/></g>
<g><path style="opacity:1" fill="#464646" d="M 481.5,675.5 C 484.152,675.41 486.485,676.076 488.5,677.5C 485.848,677.59 483.515,676.924 481.5,675.5 Z"/></g>
<g><path style="opacity:1" fill="#545454" d="M 773.5,675.5 C 773.573,677.027 772.906,678.027 771.5,678.5C 771.427,676.973 772.094,675.973 773.5,675.5 Z"/></g>
<g><path style="opacity:1" fill="#373737" d="M 517.5,683.5 C 524.736,683.765 531.736,684.765 538.5,686.5C 531.251,686.322 524.251,685.322 517.5,683.5 Z"/></g>
<g><path style="opacity:1" fill="#424242" d="M 645.5,683.5 C 643.039,684.531 640.373,685.198 637.5,685.5C 637.611,684.883 637.944,684.383 638.5,684C 640.81,683.503 643.143,683.337 645.5,683.5 Z"/></g>
<g><path style="opacity:1" fill="#545454" d="M 178.5,689.5 C 180.262,690.262 181.262,691.596 181.5,693.5C 179.738,692.738 178.738,691.404 178.5,689.5 Z"/></g>
<g><path style="opacity:1" fill="#565656" d="M 748.5,703.5 C 747.581,706.089 745.914,708.089 743.5,709.5C 744.419,706.911 746.086,704.911 748.5,703.5 Z"/></g>
<g><path style="opacity:1" fill="#3e3e3e" d="M 572.5,806.5 C 570.485,807.924 568.152,808.59 565.5,808.5C 567.515,807.076 569.848,806.41 572.5,806.5 Z"/></g>
<g><path style="opacity:1" fill="#565656" d="M 387.5,810.5 C 390.067,810.721 392.401,811.388 394.5,812.5C 391.772,812.829 389.438,812.163 387.5,810.5 Z"/></g>
<g><path style="opacity:1" fill="#585858" d="M 406.5,814.5 C 411.076,814.438 415.409,815.105 419.5,816.5C 414.924,816.562 410.591,815.895 406.5,814.5 Z"/></g>
<g><path style="opacity:1" fill="#424242" d="M 540.5,813.5 C 532.482,815.934 524.149,817.267 515.5,817.5C 523.645,815.81 531.978,814.477 540.5,813.5 Z"/></g>
<g><path style="opacity:1" fill="#4a4a4a" d="M 354.5,822.5 C 357.152,822.41 359.485,823.076 361.5,824.5C 358.848,824.59 356.515,823.924 354.5,822.5 Z"/></g>
<g><path style="opacity:1" fill="#515151" d="M 369.5,826.5 C 372.152,826.41 374.485,827.076 376.5,828.5C 373.848,828.59 371.515,827.924 369.5,826.5 Z"/></g>
<g><path style="opacity:1" fill="#414141" d="M 408.5,834.5 C 416.066,834.772 423.399,835.772 430.5,837.5C 422.934,837.228 415.601,836.228 408.5,834.5 Z"/></g>
</svg>
