<?xml version="1.0" encoding="UTF-8"?>
<!DOCTYPE svg PUBLIC "-//W3C//DTD SVG 1.1//EN" "http://www.w3.org/Graphics/SVG/1.1/DTD/svg11.dtd">
<svg xmlns="http://www.w3.org/2000/svg" version="1.1" width="471px" height="479px" style="shape-rendering:geometricPrecision; text-rendering:geometricPrecision; image-rendering:optimizeQuality; fill-rule:evenodd; clip-rule:evenodd" xmlns:xlink="http://www.w3.org/1999/xlink">
<g><path style="opacity:1" fill="#1f1f1f" d="M 202.5,-0.5 C 204.167,-0.5 205.833,-0.5 207.5,-0.5C 210.163,8.81779 212.83,18.1511 215.5,27.5C 215.565,27.9382 215.399,28.2716 215,28.5C 214.583,27.244 213.75,26.5774 212.5,26.5C 209.726,20.5068 207.726,14.1735 206.5,7.5C 206.44,6.95691 206.107,6.62358 205.5,6.5C 204.526,8.74269 204.192,11.076 204.5,13.5C 204.747,16.9387 204.414,20.272 203.5,23.5C 202.883,23.6107 202.383,23.944 202,24.5C 201.503,22.1902 201.337,19.8568 201.5,17.5C 201.425,11.4707 201.759,5.47073 202.5,-0.5 Z"/></g>
<g><path style="opacity:1" fill="#666666" d="M 206.5,7.5 C 205.833,9.5 205.167,11.5 204.5,13.5C 204.192,11.076 204.526,8.74269 205.5,6.5C 206.107,6.62358 206.44,6.95691 206.5,7.5 Z"/></g>
<g><path style="opacity:1" fill="#414141" d="M 201.5,17.5 C 201.337,19.8568 201.503,22.1902 202,24.5C 202.383,23.944 202.883,23.6107 203.5,23.5C 203.821,29.0262 203.488,34.3595 202.5,39.5C 202.666,35.1539 202.499,30.8206 202,26.5C 201.667,26.1667 201.333,25.8333 201,25.5C 200.823,29.3563 200.323,33.023 199.5,36.5C 199.239,29.9277 199.906,23.5944 201.5,17.5 Z"/></g>
<g><path style="opacity:1" fill="#202020" d="M 202.5,39.5 C 200.97,61.7426 197.97,83.7426 193.5,105.5C 192.015,109.419 191.015,109.086 190.5,104.5C 193.938,81.8928 196.938,59.2261 199.5,36.5C 200.323,33.023 200.823,29.3563 201,25.5C 201.333,25.8333 201.667,26.1667 202,26.5C 202.499,30.8206 202.666,35.1539 202.5,39.5 Z"/></g>
<g><path style="opacity:1" fill="#232323" d="M 212.5,26.5 C 213.75,26.5774 214.583,27.244 215,28.5C 215.399,28.2716 215.565,27.9382 215.5,27.5C 225.604,57.3265 234.437,87.6598 242,118.5C 243.115,122.729 244.781,126.729 247,130.5C 248.99,133.722 251.49,134.222 254.5,132C 259.029,128.636 263.029,124.803 266.5,120.5C 268.048,120.821 268.715,121.821 268.5,123.5C 264.363,128.469 259.696,132.969 254.5,137C 252.167,137.667 249.833,137.667 247.5,137C 244.727,134.617 242.561,131.783 241,128.5C 231.496,94.4809 221.996,60.4809 212.5,26.5 Z"/></g>
<g><path style="opacity:1" fill="#919191" d="M 304.5,82.5 C 304.842,81.6618 305.508,81.3284 306.5,81.5C 306.5,84.1667 306.5,86.8333 306.5,89.5C 305.833,87.1667 305.167,84.8333 304.5,82.5 Z"/></g>
<g><path style="opacity:1" fill="#202020" d="M 313.5,152.5 C 314.354,154.035 314.354,155.368 313.5,156.5C 311.496,155.327 309.996,153.66 309,151.5C 307.713,130.849 306.88,110.183 306.5,89.5C 306.5,86.8333 306.5,84.1667 306.5,81.5C 305.058,80.1805 304.392,78.5138 304.5,76.5C 304.726,73.2357 306.226,72.2357 309,73.5C 310.024,99.8916 311.524,126.225 313.5,152.5 Z"/></g>
<g><path style="opacity:1" fill="#373737" d="M 101.5,95.5 C 99.5,95.5 98.5,96.5 98.5,98.5C 95.7967,96.4657 95.9634,94.799 99,93.5C 100.301,93.6387 101.134,94.3054 101.5,95.5 Z"/></g>
<g><path style="opacity:1" fill="#171717" d="M 101.5,95.5 C 101.833,95.5 102.167,95.5 102.5,95.5C 102.379,98.1048 101.379,100.105 99.5,101.5C 98.596,100.791 98.2627,99.791 98.5,98.5C 98.5,96.5 99.5,95.5 101.5,95.5 Z"/></g>
<g><path style="opacity:1" fill="#303030" d="M 429.5,120.5 C 429.5,118.5 429.5,116.5 429.5,114.5C 428.5,114.5 427.5,114.5 426.5,114.5C 439.827,108.85 440.827,110.85 429.5,120.5 Z"/></g>
<g><path style="opacity:1" fill="#343434" d="M 102.5,95.5 C 117.167,105.167 131.833,114.833 146.5,124.5C 146.5,125.833 145.833,126.5 144.5,126.5C 130.61,117.635 116.776,108.635 103,99.5C 102.952,102.413 103.785,105.079 105.5,107.5C 103.797,106.34 103.131,107.007 103.5,109.5C 101.659,107.151 100.326,104.485 99.5,101.5C 101.379,100.105 102.379,98.1048 102.5,95.5 Z"/></g>
<g><path style="opacity:1" fill="#212121" d="M 190.5,104.5 C 191.015,109.086 192.015,109.419 193.5,105.5C 192.028,117.388 188.695,128.721 183.5,139.5C 183.043,140.298 182.376,140.631 181.5,140.5C 177.818,140.665 174.152,140.499 170.5,140C 173.365,139.817 176.031,139.317 178.5,138.5C 181.097,135.644 182.93,132.311 184,128.5C 186.195,120.378 188.361,112.378 190.5,104.5 Z"/></g>
<g><path style="opacity:1" fill="#272727" d="M 304.5,76.5 C 304.392,78.5138 305.058,80.1805 306.5,81.5C 305.508,81.3284 304.842,81.6618 304.5,82.5C 293.216,96.785 281.216,110.452 268.5,123.5C 268.715,121.821 268.048,120.821 266.5,120.5C 279.57,106.103 292.236,91.4365 304.5,76.5 Z"/></g>
<g><path style="opacity:1" fill="#080808" d="M 426.5,114.5 C 427.5,114.5 428.5,114.5 429.5,114.5C 429.5,116.5 429.5,118.5 429.5,120.5C 427.952,120.179 427.285,119.179 427.5,117.5C 426.127,117.657 424.793,117.49 423.5,117C 424.942,116.623 425.942,115.79 426.5,114.5 Z"/></g>
<g><path style="opacity:1" fill="#323232" d="M 426.5,114.5 C 425.942,115.79 424.942,116.623 423.5,117C 424.793,117.49 426.127,117.657 427.5,117.5C 427.285,119.179 427.952,120.179 429.5,120.5C 427.833,122.833 425.833,124.833 423.5,126.5C 423.649,125.448 423.483,124.448 423,123.5C 422.184,124.823 421.017,125.489 419.5,125.5C 420.976,123.5 422.809,121.833 425,120.5C 425.667,119.833 425.667,119.167 425,118.5C 403.486,130.172 380.986,139.506 357.5,146.5C 358.85,145.35 358.684,144.683 357,144.5C 355.234,145.233 353.401,145.567 351.5,145.5C 377.012,136.548 402.012,126.214 426.5,114.5 Z"/></g>
<g><path style="opacity:1" fill="#525252" d="M 19.5,133.5 C 16.9407,133.198 14.6074,133.532 12.5,134.5C 11.9569,134.44 11.6236,134.107 11.5,133.5C 14.12,131.417 16.7866,131.417 19.5,133.5 Z"/></g>
<g><path style="opacity:1" fill="#0e0e0e" d="M 19.5,133.5 C 19.9175,134.222 20.5842,134.722 21.5,135C 19.5789,135.36 17.9122,136.194 16.5,137.5C 15.5832,136.873 14.5832,136.539 13.5,136.5C 12.6618,136.158 12.3284,135.492 12.5,134.5C 14.6074,133.532 16.9407,133.198 19.5,133.5 Z"/></g>
<g><path style="opacity:1" fill="#424242" d="M 146.5,124.5 C 152.685,128.505 159.018,132.338 165.5,136C 169.632,137.9 173.966,138.733 178.5,138.5C 176.031,139.317 173.365,139.817 170.5,140C 174.152,140.499 177.818,140.665 181.5,140.5C 176.594,141.848 171.594,141.682 166.5,140C 158.731,136.033 151.397,131.533 144.5,126.5C 145.833,126.5 146.5,125.833 146.5,124.5 Z"/></g>
<g><path style="opacity:1" fill="#272727" d="M 105.5,107.5 C 115.025,124.52 123.525,142.186 131,160.5C 131.339,163.036 131.839,165.536 132.5,168C 130.7,173.567 127.034,175.4 121.5,173.5C 119.485,172.076 117.152,171.41 114.5,171.5C 114.167,171.5 113.833,171.5 113.5,171.5C 112.34,169.797 113.007,169.131 115.5,169.5C 119.24,169.241 122.906,169.574 126.5,170.5C 127.946,169.829 128.612,168.662 128.5,167C 127.921,163.436 127.087,159.936 126,156.5C 119.032,140.564 111.532,124.897 103.5,109.5C 103.131,107.007 103.797,106.34 105.5,107.5 Z"/></g>
<g><path style="opacity:1" fill="#4e4e4e" d="M 249.5,139.5 C 242.501,139.227 235.501,138.894 228.5,138.5C 220.146,138.979 211.813,139.646 203.5,140.5C 210.969,138.81 218.635,137.477 226.5,136.5C 234.33,137.328 241.997,138.328 249.5,139.5 Z"/></g>
<g><path style="opacity:1" fill="#1a1a1a" d="M 249.5,139.5 C 253.984,139.426 258.317,140.093 262.5,141.5C 260.721,143.344 258.388,144.01 255.5,143.5C 250.306,143.259 245.306,142.593 240.5,141.5C 232.677,140.344 224.677,140.177 216.5,141C 212.233,141.189 208.233,142.023 204.5,143.5C 202.143,143.663 199.81,143.497 197.5,143C 199.315,142.243 200.981,141.41 202.5,140.5C 202.833,140.5 203.167,140.5 203.5,140.5C 211.813,139.646 220.146,138.979 228.5,138.5C 235.501,138.894 242.501,139.227 249.5,139.5 Z"/></g>
<g><path style="opacity:1" fill="#2e2e2e" d="M 19.5,133.5 C 33.2617,137.197 46.595,141.864 59.5,147.5C 59.9175,148.222 60.5842,148.722 61.5,149C 60.2068,149.49 58.8734,149.657 57.5,149.5C 46.2827,145.395 34.9494,141.562 23.5,138C 22.1667,137.333 20.8333,137.333 19.5,138C 33.5716,149.369 47.2382,161.202 60.5,173.5C 61.3543,175.035 61.3543,176.368 60.5,177.5C 47.9574,166.125 34.9574,155.291 21.5,145C 18.6286,142.297 15.9619,139.464 13.5,136.5C 14.5832,136.539 15.5832,136.873 16.5,137.5C 17.9122,136.194 19.5789,135.36 21.5,135C 20.5842,134.722 19.9175,134.222 19.5,133.5 Z"/></g>
<g><path style="opacity:1" fill="#616161" d="M 240.5,141.5 C 228.437,141.213 216.437,141.879 204.5,143.5C 208.233,142.023 212.233,141.189 216.5,141C 224.677,140.177 232.677,140.344 240.5,141.5 Z"/></g>
<g><path style="opacity:1" fill="#484848" d="M 202.5,140.5 C 200.981,141.41 199.315,142.243 197.5,143C 199.81,143.497 202.143,143.663 204.5,143.5C 201.997,144.371 199.33,145.037 196.5,145.5C 196.38,144.414 195.713,143.747 194.5,143.5C 192.547,144.156 190.547,144.489 188.5,144.5C 192.895,142.565 197.562,141.231 202.5,140.5 Z"/></g>
<g><path style="opacity:1" fill="#252525" d="M 196.5,145.5 C 191.891,147.036 187.224,148.37 182.5,149.5C 181.448,149.649 180.448,149.483 179.5,149C 182.437,147.199 185.437,145.699 188.5,144.5C 190.547,144.489 192.547,144.156 194.5,143.5C 195.713,143.747 196.38,144.414 196.5,145.5 Z"/></g>
<g><path style="opacity:1" fill="#686868" d="M 357.5,146.5 C 355.786,147.738 353.786,148.405 351.5,148.5C 353.102,146.926 355.102,146.259 357.5,146.5 Z"/></g>
<g><path style="opacity:1" fill="#4f4f4f" d="M 350.5,145.5 C 342.915,149.14 334.915,151.806 326.5,153.5C 334.216,150.261 342.216,147.595 350.5,145.5 Z"/></g>
<g><path style="opacity:1" fill="#303030" d="M 262.5,141.5 C 278.243,144.691 292.91,150.524 306.5,159C 309.062,161.733 311.729,164.233 314.5,166.5C 311.313,165.163 310.646,166.163 312.5,169.5C 308.231,164.733 303.231,160.9 297.5,158C 287.921,153.647 278.254,149.813 268.5,146.5C 263.948,145.943 259.615,144.943 255.5,143.5C 258.388,144.01 260.721,143.344 262.5,141.5 Z"/></g>
<g><path style="opacity:1" fill="#080808" d="M 268.5,146.5 C 261.631,143.951 261.964,143.117 269.5,144C 272.051,145.516 271.718,146.349 268.5,146.5 Z"/></g>
<g><path style="opacity:1" fill="#363636" d="M 188.5,144.5 C 185.437,145.699 182.437,147.199 179.5,149C 180.448,149.483 181.448,149.649 182.5,149.5C 175.417,152.54 168.417,155.874 161.5,159.5C 161.631,158.761 161.464,158.094 161,157.5C 160.329,158.252 159.496,158.586 158.5,158.5C 167.241,151.353 177.241,146.687 188.5,144.5 Z"/></g>
<g><path style="opacity:1" fill="#272727" d="M 357.5,146.5 C 355.102,146.259 353.102,146.926 351.5,148.5C 341.098,152.91 330.264,156.243 319,158.5C 316.779,158.607 314.946,157.94 313.5,156.5C 314.354,155.368 314.354,154.035 313.5,152.5C 317.619,154.629 321.953,154.962 326.5,153.5C 334.915,151.806 342.915,149.14 350.5,145.5C 350.833,145.5 351.167,145.5 351.5,145.5C 353.401,145.567 355.234,145.233 357,144.5C 358.684,144.683 358.85,145.35 357.5,146.5 Z"/></g>
<g><path style="opacity:1" fill="#2b2b2b" d="M 423.5,126.5 C 412.791,136.71 402.957,147.71 394,159.5C 379.898,172.598 366.898,186.598 355,201.5C 354.51,202.793 354.343,204.127 354.5,205.5C 355.048,207.394 356.048,209.06 357.5,210.5C 357.043,211.298 356.376,211.631 355.5,211.5C 350.215,207.579 349.382,202.913 353,197.5C 362.553,185.369 373.22,174.369 385,164.5C 388.575,160.347 391.909,156.014 395,151.5C 403.033,142.636 411.2,133.969 419.5,125.5C 421.017,125.489 422.184,124.823 423,123.5C 423.483,124.448 423.649,125.448 423.5,126.5 Z"/></g>
<g><path style="opacity:1" fill="#3e3e3e" d="M 59.5,147.5 C 78.6595,153.88 97.3262,161.214 115.5,169.5C 113.007,169.131 112.34,169.797 113.5,171.5C 94.8368,163.95 76.1701,156.616 57.5,149.5C 58.8734,149.657 60.2068,149.49 61.5,149C 60.5842,148.722 59.9175,148.222 59.5,147.5 Z"/></g>
<g><path style="opacity:1" fill="#272727" d="M 161.5,159.5 C 155.263,164.23 149.43,169.563 144,175.5C 140.38,180.789 136.38,185.789 132,190.5C 126.089,200.433 121.256,210.766 117.5,221.5C 117.196,219.204 116.196,218.871 114.5,220.5C 120.98,197.858 132.98,178.691 150.5,163C 153.059,161.223 155.726,159.723 158.5,158.5C 159.496,158.586 160.329,158.252 161,157.5C 161.464,158.094 161.631,158.761 161.5,159.5 Z"/></g>
<g><path style="opacity:1" fill="#5a5a5a" d="M 114.5,171.5 C 117.152,171.41 119.485,172.076 121.5,173.5C 118.848,173.59 116.515,172.924 114.5,171.5 Z"/></g>
<g><path style="opacity:1" fill="#252525" d="M 314.5,166.5 C 331.004,181.166 341.004,199.499 344.5,221.5C 343.015,217.581 342.015,217.914 341.5,222.5C 337.318,201.8 327.651,184.133 312.5,169.5C 310.646,166.163 311.313,165.163 314.5,166.5 Z"/></g>
<g><path style="opacity:1" fill="#2d2d2d" d="M 60.5,173.5 C 75.5452,186.711 91.0452,199.377 107,211.5C 108.373,213.695 108.706,216.029 108,218.5C 104.4,220.646 100.567,222.313 96.5,223.5C 95.1266,223.657 93.7932,223.49 92.5,223C 93.9423,222.623 94.9423,221.79 95.5,220.5C 98.0748,219.213 100.741,217.879 103.5,216.5C 104.521,215.998 104.688,215.332 104,214.5C 89.0147,202.677 74.5147,190.344 60.5,177.5C 61.3543,176.368 61.3543,175.035 60.5,173.5 Z"/></g>
<g><path style="opacity:1" fill="#424242" d="M 354.5,205.5 C 356.525,207.196 358.525,208.863 360.5,210.5C 359.624,210.369 358.957,210.702 358.5,211.5C 359.77,212.288 360.77,213.288 361.5,214.5C 359.033,214.245 357.033,213.245 355.5,211.5C 356.376,211.631 357.043,211.298 357.5,210.5C 356.048,209.06 355.048,207.394 354.5,205.5 Z"/></g>
<g><path style="opacity:1" fill="#626262" d="M 367.5,212.5 C 372.035,213.137 376.368,214.137 380.5,215.5C 376.466,215.328 372.466,214.828 368.5,214C 367.944,213.617 367.611,213.117 367.5,212.5 Z"/></g>
<g><path style="opacity:1" fill="#535353" d="M 361.5,214.5 C 364.152,214.41 366.485,215.076 368.5,216.5C 365.848,216.59 363.515,215.924 361.5,214.5 Z"/></g>
<g><path style="opacity:1" fill="#1a1a1a" d="M 360.5,210.5 C 362.833,211.167 365.167,211.833 367.5,212.5C 367.611,213.117 367.944,213.617 368.5,214C 372.466,214.828 376.466,215.328 380.5,215.5C 384.567,217.054 388.9,217.72 393.5,217.5C 396.059,217.198 398.393,217.532 400.5,218.5C 400.782,219.778 401.449,220.778 402.5,221.5C 394.558,220.065 386.558,219.065 378.5,218.5C 374.96,218.247 371.627,217.581 368.5,216.5C 366.485,215.076 364.152,214.41 361.5,214.5C 360.77,213.288 359.77,212.288 358.5,211.5C 358.957,210.702 359.624,210.369 360.5,210.5 Z"/></g>
<g><path style="opacity:1" fill="#676767" d="M 380.5,215.5 C 385.049,215.624 389.382,216.291 393.5,217.5C 388.9,217.72 384.567,217.054 380.5,215.5 Z"/></g>
<g><path style="opacity:1" fill="#212121" d="M 344.5,221.5 C 346,227.26 346.667,233.26 346.5,239.5C 346.392,248.362 345.725,257.028 344.5,265.5C 342.825,262.493 342.159,259.16 342.5,255.5C 342.684,244.477 342.351,233.477 341.5,222.5C 342.015,217.914 343.015,217.581 344.5,221.5 Z"/></g>
<g><path style="opacity:1" fill="#4d4d4d" d="M 378.5,218.5 C 386.558,219.065 394.558,220.065 402.5,221.5C 404.099,221.232 405.432,221.566 406.5,222.5C 396.895,222.135 387.561,220.802 378.5,218.5 Z"/></g>
<g><path style="opacity:1" fill="#222222" d="M 400.5,218.5 C 406.587,218.511 412.587,219.178 418.5,220.5C 419.731,221.651 419.731,222.817 418.5,224C 416.655,225.128 414.655,225.628 412.5,225.5C 410.435,225.517 408.435,225.85 406.5,226.5C 404.169,226.141 404.335,225.474 407,224.5C 407.692,223.563 407.525,222.897 406.5,222.5C 405.432,221.566 404.099,221.232 402.5,221.5C 401.449,220.778 400.782,219.778 400.5,218.5 Z"/></g>
<g><path style="opacity:1" fill="#3d3d3d" d="M 95.5,220.5 C 94.9423,221.79 93.9423,222.623 92.5,223C 93.7932,223.49 95.1266,223.657 96.5,223.5C 86.3118,228.053 75.6451,231.386 64.5,233.5C 64.9175,232.778 65.5842,232.278 66.5,232C 65.2068,231.51 63.8734,231.343 62.5,231.5C 73.4887,228.059 84.4887,224.393 95.5,220.5 Z"/></g>
<g><path style="opacity:1" fill="#787878" d="M 412.5,225.5 C 410.786,226.738 408.786,227.405 406.5,227.5C 406.5,227.167 406.5,226.833 406.5,226.5C 408.435,225.85 410.435,225.517 412.5,225.5 Z"/></g>
<g><path style="opacity:1" fill="#515151" d="M 62.5,231.5 C 60.4855,232.924 58.1522,233.59 55.5,233.5C 57.5145,232.076 59.8478,231.41 62.5,231.5 Z"/></g>
<g><path style="opacity:1" fill="#6c6c6c" d="M 61.5,234.5 C 59.4006,235.612 57.0673,236.279 54.5,236.5C 56.4385,234.837 58.7718,234.171 61.5,234.5 Z"/></g>
<g><path style="opacity:1" fill="#1e1e1e" d="M 62.5,231.5 C 63.8734,231.343 65.2068,231.51 66.5,232C 65.5842,232.278 64.9175,232.778 64.5,233.5C 63.791,234.404 62.791,234.737 61.5,234.5C 58.7718,234.171 56.4385,234.837 54.5,236.5C 54.1667,236.5 53.8333,236.5 53.5,236.5C 50.8333,236.833 48.1667,237.167 45.5,237.5C 46.0306,240.779 48.0306,242.113 51.5,241.5C 51.8333,241.5 52.1667,241.5 52.5,241.5C 54.0544,242.895 53.721,243.561 51.5,243.5C 49.5466,242.844 47.5466,242.511 45.5,242.5C 43.4855,241.076 41.1522,240.41 38.5,240.5C 36.5337,239.745 36.2004,238.579 37.5,237C 43.4526,235.509 49.4526,234.343 55.5,233.5C 58.1522,233.59 60.4855,232.924 62.5,231.5 Z"/></g>
<g><path style="opacity:1" fill="#636363" d="M 53.5,236.5 C 51.4375,237.776 49.1042,238.61 46.5,239C 48.3146,239.757 49.9812,240.59 51.5,241.5C 48.0306,242.113 46.0306,240.779 45.5,237.5C 48.1667,237.167 50.8333,236.833 53.5,236.5 Z"/></g>
<g><path style="opacity:1" fill="#575757" d="M 38.5,240.5 C 41.1522,240.41 43.4855,241.076 45.5,242.5C 42.8478,242.59 40.5145,241.924 38.5,240.5 Z"/></g>
<g><path style="opacity:1" fill="#303030" d="M 406.5,222.5 C 407.525,222.897 407.692,223.563 407,224.5C 404.335,225.474 404.169,226.141 406.5,226.5C 406.5,226.833 406.5,227.167 406.5,227.5C 389.557,233.707 372.89,240.707 356.5,248.5C 356.631,247.624 356.298,246.957 355.5,246.5C 354.482,247.193 353.482,247.859 352.5,248.5C 353.031,246.376 354.365,244.876 356.5,244C 373.144,236.517 389.811,229.35 406.5,222.5 Z"/></g>
<g><path style="opacity:1" fill="#414141" d="M 52.5,241.5 C 56.479,241.742 60.1456,242.742 63.5,244.5C 60.5071,243.865 57.5071,243.699 54.5,244C 55.4158,244.278 56.0825,244.778 56.5,245.5C 52.521,245.258 48.8544,244.258 45.5,242.5C 47.5466,242.511 49.5466,242.844 51.5,243.5C 53.721,243.561 54.0544,242.895 52.5,241.5 Z"/></g>
<g><path style="opacity:1" fill="#070707" d="M 63.5,244.5 C 63.5299,245.497 63.0299,246.164 62,246.5C 60.2341,245.767 58.4008,245.433 56.5,245.5C 56.0825,244.778 55.4158,244.278 54.5,244C 57.5071,243.699 60.5071,243.865 63.5,244.5 Z"/></g>
<g><path style="opacity:1" fill="#212121" d="M 117.5,221.5 C 108.681,250.767 111.681,278.767 126.5,305.5C 126.631,306.376 126.298,307.043 125.5,307.5C 124.735,306.388 123.735,305.721 122.5,305.5C 107.13,278.335 104.463,250.001 114.5,220.5C 116.196,218.871 117.196,219.204 117.5,221.5 Z"/></g>
<g><path style="opacity:1" fill="#454545" d="M 63.5,244.5 C 67.1165,244.899 70.4498,245.899 73.5,247.5C 70.5071,246.865 67.5071,246.699 64.5,247C 65.4158,247.278 66.0825,247.778 66.5,248.5C 62.8379,248.277 59.5046,247.277 56.5,245.5C 58.4008,245.433 60.2341,245.767 62,246.5C 63.0299,246.164 63.5299,245.497 63.5,244.5 Z"/></g>
<g><path style="opacity:1" fill="#2a2a2a" d="M 73.5,247.5 C 83.2905,249.709 92.6239,253.209 101.5,258C 105.804,262.648 105.138,266.482 99.5,269.5C 98.1667,269.5 97.5,268.833 97.5,267.5C 98.6854,266.143 99.6854,264.643 100.5,263C 100.355,262.228 100.022,261.561 99.5,261C 88.7957,255.715 77.7957,251.548 66.5,248.5C 66.0825,247.778 65.4158,247.278 64.5,247C 67.5071,246.699 70.5071,246.865 73.5,247.5 Z"/></g>
<g><path style="opacity:1" fill="#212121" d="M 356.5,248.5 C 355.12,251.625 355.453,254.625 357.5,257.5C 363.719,263.089 370.052,268.423 376.5,273.5C 374.901,274.562 373.234,274.562 371.5,273.5C 364.723,269.347 358.556,264.347 353,258.5C 351.316,255.106 351.149,251.772 352.5,248.5C 353.482,247.859 354.482,247.193 355.5,246.5C 356.298,246.957 356.631,247.624 356.5,248.5 Z"/></g>
<g><path style="opacity:1" fill="#232323" d="M 342.5,255.5 C 342.159,259.16 342.825,262.493 344.5,265.5C 343.273,282.511 338.273,298.177 329.5,312.5C 327.952,312.179 327.285,311.179 327.5,309.5C 335.636,292.278 340.636,274.278 342.5,255.5 Z"/></g>
<g><path style="opacity:1" fill="#323232" d="M 371.5,273.5 C 373.234,274.562 374.901,274.562 376.5,273.5C 384.844,278.003 392.844,283.003 400.5,288.5C 398.863,287.782 397.197,287.616 395.5,288C 396.056,288.383 396.389,288.883 396.5,289.5C 387.625,284.948 379.292,279.615 371.5,273.5 Z"/></g>
<g><path style="opacity:1" fill="#232323" d="M 400.5,288.5 C 403.485,289.326 406.151,290.659 408.5,292.5C 408.721,293.735 409.388,294.735 410.5,295.5C 409.767,296.087 408.767,296.087 407.5,295.5C 403.345,294.258 399.678,292.258 396.5,289.5C 396.389,288.883 396.056,288.383 395.5,288C 397.197,287.616 398.863,287.782 400.5,288.5 Z"/></g>
<g><path style="opacity:1" fill="#323232" d="M 97.5,267.5 C 97.5,268.833 98.1667,269.5 99.5,269.5C 91.3987,275.757 83.3987,282.257 75.5,289C 51.1396,302.842 27.8063,318.175 5.5,335C 7.75129,334.793 10.0846,334.627 12.5,334.5C 14.5273,334.338 16.5273,334.505 18.5,335C 17.5842,335.278 16.9175,335.778 16.5,336.5C 13.3209,337.793 9.98758,338.46 6.5,338.5C 6.91753,337.778 7.5842,337.278 8.5,337C 7.20677,336.51 5.87344,336.343 4.5,336.5C 4.84316,334.517 4.17649,333.183 2.5,332.5C 26.2465,315.114 50.9131,298.947 76.5,284C 82.3544,279.235 88.0211,274.235 93.5,269C 94.745,268.209 96.0783,267.709 97.5,267.5 Z"/></g>
<g><path style="opacity:1" fill="#2e2e2e" d="M 408.5,292.5 C 427.537,302.008 445.537,313.008 462.5,325.5C 461.833,326.167 461.167,326.833 460.5,327.5C 460.167,327.5 459.833,327.5 459.5,327.5C 442.734,315.79 425.401,305.123 407.5,295.5C 408.767,296.087 409.767,296.087 410.5,295.5C 409.388,294.735 408.721,293.735 408.5,292.5 Z"/></g>
<g><path style="opacity:1" fill="#2a2a2a" d="M 370.5,312.5 C 374.919,313.972 379.586,314.638 384.5,314.5C 387.385,314.194 390.052,314.527 392.5,315.5C 388.958,315.187 385.625,315.521 382.5,316.5C 381.833,316.5 381.167,316.5 380.5,316.5C 368.824,315.285 357.157,314.452 345.5,314C 344.692,314.308 344.025,314.808 343.5,315.5C 345.624,318.279 347.291,321.279 348.5,324.5C 348.631,325.239 348.464,325.906 348,326.5C 347.29,325.027 346.124,324.36 344.5,324.5C 342.317,321.467 340.65,318.134 339.5,314.5C 339.529,312.971 340.196,311.804 341.5,311C 343.581,310.131 345.747,309.631 348,309.5C 355.684,310.214 363.184,311.214 370.5,312.5 Z"/></g>
<g><path style="opacity:1" fill="#646464" d="M 370.5,312.5 C 375.391,312.532 380.057,313.199 384.5,314.5C 379.586,314.638 374.919,313.972 370.5,312.5 Z"/></g>
<g><path style="opacity:1" fill="#606060" d="M 120.5,315.5 C 112.817,315.523 105.15,315.857 97.5,316.5C 102.088,315.072 106.921,314.405 112,314.5C 115.021,314.502 117.854,314.836 120.5,315.5 Z"/></g>
<g><path style="opacity:1" fill="#1a1a1a" d="M 120.5,315.5 C 121.833,315.5 122.5,316.167 122.5,317.5C 121.833,321.5 121.167,321.5 120.5,317.5C 114.31,317.177 108.31,317.51 102.5,318.5C 100.735,319.461 98.7354,319.795 96.5,319.5C 94.4727,319.662 92.4727,319.495 90.5,319C 91.4158,318.722 92.0825,318.222 92.5,317.5C 93.9187,316.549 95.5853,316.216 97.5,316.5C 105.15,315.857 112.817,315.523 120.5,315.5 Z"/></g>
<g><path style="opacity:1" fill="#4e4e4e" d="M 380.5,316.5 C 381.167,316.5 381.833,316.5 382.5,316.5C 388.116,316.656 393.449,317.656 398.5,319.5C 392.28,319.043 386.28,318.043 380.5,316.5 Z"/></g>
<g><path style="opacity:1" fill="#6f6f6f" d="M 393.5,315.5 C 397.387,315.646 401.054,316.313 404.5,317.5C 400.542,317.749 396.876,317.082 393.5,315.5 Z"/></g>
<g><path style="opacity:1" fill="#3b3b3b" d="M 92.5,317.5 C 92.0825,318.222 91.4158,318.722 90.5,319C 92.4727,319.495 94.4727,319.662 96.5,319.5C 89.7213,321.61 82.7213,323.277 75.5,324.5C 75.9175,323.778 76.5842,323.278 77.5,323C 73.1951,323.077 68.8618,323.244 64.5,323.5C 73.6906,321.394 83.0239,319.394 92.5,317.5 Z"/></g>
<g><path style="opacity:1" fill="#6a6a6a" d="M 403.5,320.5 C 407.16,320.159 410.493,320.825 413.5,322.5C 409.96,322.247 406.627,321.581 403.5,320.5 Z"/></g>
<g><path style="opacity:1" fill="#585858" d="M 426.5,321.5 C 430.736,322.008 434.736,323.008 438.5,324.5C 434.126,324.498 430.126,323.498 426.5,321.5 Z"/></g>
<g><path style="opacity:1" fill="#2d2d2d" d="M 75.5,324.5 C 70.6055,325.879 65.6055,326.879 60.5,327.5C 58.4727,327.662 56.4727,327.495 54.5,327C 55.7375,326.768 56.7375,326.268 57.5,325.5C 59.5145,324.076 61.8478,323.41 64.5,323.5C 68.8618,323.244 73.1951,323.077 77.5,323C 76.5842,323.278 75.9175,323.778 75.5,324.5 Z"/></g>
<g><path style="opacity:1" fill="#5a5a5a" d="M 440.5,324.5 C 444.774,324.87 448.774,325.87 452.5,327.5C 448.159,327.342 444.159,326.342 440.5,324.5 Z"/></g>
<g><path style="opacity:1" fill="#292929" d="M 122.5,305.5 C 123.735,305.721 124.735,306.388 125.5,307.5C 126.298,307.043 126.631,306.376 126.5,305.5C 130.417,311.265 134.584,316.932 139,322.5C 159.228,339.701 182.061,352.368 207.5,360.5C 208.99,362.28 210.99,362.946 213.5,362.5C 213.833,362.5 214.167,362.5 214.5,362.5C 214.5,362.833 214.5,363.167 214.5,363.5C 213.127,363.343 211.793,363.51 210.5,364C 211.416,364.278 212.082,364.778 212.5,365.5C 179.305,357.997 151.472,341.664 129,316.5C 126.822,312.806 124.655,309.139 122.5,305.5 Z"/></g>
<g><path style="opacity:1" fill="#242424" d="M 382.5,316.5 C 385.625,315.521 388.958,315.187 392.5,315.5C 392.833,315.5 393.167,315.5 393.5,315.5C 396.876,317.082 400.542,317.749 404.5,317.5C 411.91,318.449 419.244,319.782 426.5,321.5C 430.126,323.498 434.126,324.498 438.5,324.5C 439.167,324.5 439.833,324.5 440.5,324.5C 444.159,326.342 448.159,327.342 452.5,327.5C 453.167,327.5 453.833,327.5 454.5,327.5C 456.705,329.916 458.705,329.916 460.5,327.5C 461.167,326.833 461.833,326.167 462.5,325.5C 465.109,326.443 467.109,328.11 468.5,330.5C 466.721,332.344 464.388,333.01 461.5,332.5C 459.585,332.784 457.919,332.451 456.5,331.5C 454.485,330.076 452.152,329.41 449.5,329.5C 437.371,327.674 425.371,325.341 413.5,322.5C 410.493,320.825 407.16,320.159 403.5,320.5C 401.585,320.784 399.919,320.451 398.5,319.5C 393.449,317.656 388.116,316.656 382.5,316.5 Z"/></g>
<g><path style="opacity:1" fill="#474747" d="M 57.5,325.5 C 56.7375,326.268 55.7375,326.768 54.5,327C 56.4727,327.495 58.4727,327.662 60.5,327.5C 57.3582,328.79 54.0248,329.79 50.5,330.5C 50.6107,329.883 50.944,329.383 51.5,329C 49.8659,328.506 48.1992,328.34 46.5,328.5C 49.9065,326.926 53.5732,325.926 57.5,325.5 Z"/></g>
<g><path style="opacity:1" fill="#656565" d="M 454.5,327.5 C 456.398,328.096 458.065,328.096 459.5,327.5C 459.833,327.5 460.167,327.5 460.5,327.5C 458.705,329.916 456.705,329.916 454.5,327.5 Z"/></g>
<g><path style="opacity:1" fill="#222222" d="M 46.5,328.5 C 48.1992,328.34 49.8659,328.506 51.5,329C 50.944,329.383 50.6107,329.883 50.5,330.5C 47.0388,332.091 43.3721,332.758 39.5,332.5C 36.4816,332.665 33.4816,332.498 30.5,332C 34.0382,331.465 37.3716,330.632 40.5,329.5C 42.2646,328.539 44.2646,328.205 46.5,328.5 Z"/></g>
<g><path style="opacity:1" fill="#3b3b3b" d="M 40.5,329.5 C 37.3716,330.632 34.0382,331.465 30.5,332C 33.4816,332.498 36.4816,332.665 39.5,332.5C 35.3609,333.563 31.0275,334.23 26.5,334.5C 24.4727,334.662 22.4727,334.495 20.5,334C 21.4158,333.722 22.0825,333.222 22.5,332.5C 28.2967,330.475 34.2967,329.475 40.5,329.5 Z"/></g>
<g><path style="opacity:1" fill="#585858" d="M 449.5,329.5 C 452.152,329.41 454.485,330.076 456.5,331.5C 453.848,331.59 451.515,330.924 449.5,329.5 Z"/></g>
<g><path style="opacity:1" fill="#3d403f" d="M 468.5,330.5 C 469.167,330.5 469.833,330.5 470.5,330.5C 470.5,331.5 470.5,332.5 470.5,333.5C 467.287,333.81 464.287,333.477 461.5,332.5C 464.388,333.01 466.721,332.344 468.5,330.5 Z"/></g>
<g><path style="opacity:1" fill="#4f4f4f" d="M 22.5,332.5 C 22.0825,333.222 21.4158,333.722 20.5,334C 22.4727,334.495 24.4727,334.662 26.5,334.5C 23.3733,335.581 20.0399,336.247 16.5,336.5C 16.9175,335.778 17.5842,335.278 18.5,335C 16.5273,334.505 14.5273,334.338 12.5,334.5C 15.5885,333.215 18.9219,332.549 22.5,332.5 Z"/></g>
<g><path style="opacity:1" fill="#202020" d="M 2.5,332.5 C 4.17649,333.183 4.84316,334.517 4.5,336.5C 5.87344,336.343 7.20677,336.51 8.5,337C 7.5842,337.278 6.91753,337.778 6.5,338.5C 4.39263,339.468 2.0593,339.802 -0.5,339.5C -0.5,337.5 -0.5,335.5 -0.5,333.5C 0.391047,332.89 1.39105,332.557 2.5,332.5 Z"/></g>
<g><path style="opacity:1" fill="#2d2d2d" d="M 327.5,309.5 C 327.285,311.179 327.952,312.179 329.5,312.5C 319.587,334.575 303.254,350.075 280.5,359C 271.456,362.428 262.123,364.594 252.5,365.5C 253.263,364.732 254.263,364.232 255.5,364C 252.854,363.503 250.187,363.336 247.5,363.5C 260.015,361.087 272.349,357.587 284.5,353C 294.778,348.054 303.944,341.554 312,333.5C 317.454,325.574 322.621,317.574 327.5,309.5 Z"/></g>
<g><path style="opacity:1" fill="#393939" d="M 320.5,346.5 C 318.143,346.337 315.81,346.503 313.5,347C 316.104,347.39 318.438,348.224 320.5,349.5C 318.738,349.643 317.071,349.309 315.5,348.5C 313.64,349.26 311.973,350.26 310.5,351.5C 310.768,349.901 310.434,348.568 309.5,347.5C 312.839,343.987 316.506,343.653 320.5,346.5 Z"/></g>
<g><path style="opacity:1" fill="#0b0b0b" d="M 320.5,346.5 C 321.398,347.158 322.398,347.824 323.5,348.5C 322.675,349.386 321.675,349.719 320.5,349.5C 318.438,348.224 316.104,347.39 313.5,347C 315.81,346.503 318.143,346.337 320.5,346.5 Z"/></g>
<g><path style="opacity:1" fill="#575757" d="M 320.5,346.5 C 323.152,346.41 325.485,347.076 327.5,348.5C 323.995,348.694 323.662,349.694 326.5,351.5C 324.214,351.405 322.214,350.738 320.5,349.5C 321.675,349.719 322.675,349.386 323.5,348.5C 322.398,347.824 321.398,347.158 320.5,346.5 Z"/></g>
<g><path style="opacity:1" fill="#262626" d="M 344.5,324.5 C 346.124,324.36 347.29,325.027 348,326.5C 348.464,325.906 348.631,325.239 348.5,324.5C 358.719,337.563 369.553,350.23 381,362.5C 384.876,368.098 383.709,370.431 377.5,369.5C 379.179,366.988 378.845,364.988 376.5,363.5C 365.077,351.082 354.411,338.082 344.5,324.5 Z"/></g>
<g><path style="opacity:1" fill="#232323" d="M 309.5,347.5 C 310.434,348.568 310.768,349.901 310.5,351.5C 309.656,355.099 309.323,358.766 309.5,362.5C 309.649,363.552 309.483,364.552 309,365.5C 308.292,364.619 307.458,363.953 306.5,363.5C 305.489,359.888 305.322,356.221 306,352.5C 306.697,350.416 307.864,348.749 309.5,347.5 Z"/></g>
<g><path style="opacity:1" fill="#131313" d="M 327.5,348.5 C 328.167,348.5 328.833,348.5 329.5,348.5C 330.347,349.966 331.68,350.8 333.5,351C 331.866,351.494 330.199,351.66 328.5,351.5C 327.833,351.5 327.167,351.5 326.5,351.5C 323.662,349.694 323.995,348.694 327.5,348.5 Z"/></g>
<g><path style="opacity:1" fill="#252525" d="M 151.5,347.5 C 152.942,349.54 153.942,351.873 154.5,354.5C 151.805,378.725 147.805,402.725 142.5,426.5C 140.824,425.817 140.157,424.483 140.5,422.5C 143.507,408.288 146.007,393.955 148,379.5C 149.128,370.2 149.628,360.866 149.5,351.5C 148.048,350.698 146.382,350.198 144.5,350C 146.645,348.711 148.978,347.878 151.5,347.5 Z"/></g>
<g><path style="opacity:1" fill="#2a2a2a" d="M 102.5,318.5 C 108.31,317.51 114.31,317.177 120.5,317.5C 121.167,321.5 121.833,321.5 122.5,317.5C 123.559,319.726 123.392,322.059 122,324.5C 112.392,339.772 102.392,354.772 92,369.5C 91.3333,370.5 91.3333,371.5 92,372.5C 92.6708,371.748 93.5041,371.414 94.5,371.5C 96.7957,371.804 97.129,372.804 95.5,374.5C 92.1363,376.683 88.4696,378.016 84.5,378.5C 84.3398,376.801 84.5065,375.134 85,373.5C 92.6667,362.5 100.333,351.5 108,340.5C 112.644,333.543 116.478,326.21 119.5,318.5C 113.833,318.5 108.167,318.5 102.5,318.5 Z"/></g>
<g><path style="opacity:1" fill="#383838" d="M 329.5,348.5 C 337.26,350.264 344.593,352.93 351.5,356.5C 350.448,356.351 349.448,356.517 348.5,357C 349.942,357.377 350.942,358.21 351.5,359.5C 343.748,356.806 336.081,354.139 328.5,351.5C 330.199,351.66 331.866,351.494 333.5,351C 331.68,350.8 330.347,349.966 329.5,348.5 Z"/></g>
<g><path style="opacity:1" fill="#181818" d="M 351.5,356.5 C 352.791,356.263 353.791,356.596 354.5,357.5C 355.6,358.558 356.934,359.392 358.5,360C 356.203,360.018 353.869,359.851 351.5,359.5C 350.942,358.21 349.942,357.377 348.5,357C 349.448,356.517 350.448,356.351 351.5,356.5 Z"/></g>
<g><path style="opacity:1" fill="#656565" d="M 207.5,360.5 C 209.698,360.875 211.698,361.542 213.5,362.5C 210.99,362.946 208.99,362.28 207.5,360.5 Z"/></g>
<g><path style="opacity:1" fill="#252525" d="M 214.5,363.5 C 221.471,364.364 228.471,365.03 235.5,365.5C 239.447,365.637 243.114,364.97 246.5,363.5C 246.833,363.5 247.167,363.5 247.5,363.5C 250.187,363.336 252.854,363.503 255.5,364C 254.263,364.232 253.263,364.732 252.5,365.5C 247.133,367.451 241.466,368.451 235.5,368.5C 227.586,368.271 219.919,367.271 212.5,365.5C 212.082,364.778 211.416,364.278 210.5,364C 211.793,363.51 213.127,363.343 214.5,363.5 Z"/></g>
<g><path style="opacity:1" fill="#313131" d="M 354.5,357.5 C 362.018,359.589 369.352,362.256 376.5,365.5C 377.463,365.03 377.463,364.363 376.5,363.5C 378.845,364.988 379.179,366.988 377.5,369.5C 368.555,366.686 359.888,363.353 351.5,359.5C 353.869,359.851 356.203,360.018 358.5,360C 356.934,359.392 355.6,358.558 354.5,357.5 Z"/></g>
<g><path style="opacity:1" fill="#565656" d="M 214.5,363.5 C 214.5,363.167 214.5,362.833 214.5,362.5C 225.146,364.166 235.813,364.499 246.5,363.5C 243.114,364.97 239.447,365.637 235.5,365.5C 228.471,365.03 221.471,364.364 214.5,363.5 Z"/></g>
<g><path style="opacity:1" fill="#333333" d="M 151.5,347.5 C 148.978,347.878 146.645,348.711 144.5,350C 146.382,350.198 148.048,350.698 149.5,351.5C 130.643,357.228 112.643,364.894 95.5,374.5C 97.129,372.804 96.7957,371.804 94.5,371.5C 111.309,361.719 128.976,353.552 147.5,347C 149.066,346.235 150.399,346.402 151.5,347.5 Z"/></g>
<g><path style="opacity:1" fill="#040404" d="M 251.5,371.5 C 259.154,371.129 259.487,372.129 252.5,374.5C 250.204,374.196 249.871,373.196 251.5,371.5 Z"/></g>
<g><path style="opacity:1" fill="#272727" d="M 236.5,425.5 C 234.683,427.012 233.683,429.012 233.5,431.5C 227.895,418.287 221.728,405.287 215,392.5C 210.957,386.247 206.79,380.08 202.5,374C 200.365,373.365 198.365,373.699 196.5,375C 194.018,379.307 191.018,383.14 187.5,386.5C 187.631,385.761 187.464,385.094 187,384.5C 185.961,385.71 184.794,386.71 183.5,387.5C 187.257,381.897 191.257,376.397 195.5,371C 200.551,368.006 204.718,369.172 208,374.5C 217.642,390.786 226.475,407.453 234.5,424.5C 234.957,425.298 235.624,425.631 236.5,425.5 Z"/></g>
<g><path style="opacity:1" fill="#272727" d="M 251.5,371.5 C 249.871,373.196 250.204,374.196 252.5,374.5C 247.877,387.669 244.21,401.002 241.5,414.5C 241.664,411.813 241.497,409.146 241,406.5C 240.617,407.056 240.117,407.389 239.5,407.5C 241.611,396.329 244.445,385.329 248,374.5C 248.759,372.937 249.926,371.937 251.5,371.5 Z"/></g>
<g><path style="opacity:1" fill="#242424" d="M 187.5,386.5 C 179.993,398.852 171.993,410.852 163.5,422.5C 162.167,422.5 161.5,421.833 161.5,420.5C 168.598,409.291 175.932,398.291 183.5,387.5C 184.794,386.71 185.961,385.71 187,384.5C 187.464,385.094 187.631,385.761 187.5,386.5 Z"/></g>
<g><path style="opacity:1" fill="#282828" d="M 251.5,371.5 C 253.628,370.371 255.961,370.204 258.5,371C 276.683,387.349 293.683,404.849 309.5,423.5C 309.715,425.179 309.048,426.179 307.5,426.5C 292.016,408.183 275.349,391.016 257.5,375C 255.866,374.506 254.199,374.34 252.5,374.5C 259.487,372.129 259.154,371.129 251.5,371.5 Z"/></g>
<g><path style="opacity:1" fill="#222222" d="M 309.5,362.5 C 320.809,392.08 332.142,421.747 343.5,451.5C 342.504,451.586 341.671,451.252 341,450.5C 340.536,451.094 340.369,451.761 340.5,452.5C 330.596,427.973 320.762,403.306 311,378.5C 309.19,373.572 307.69,368.572 306.5,363.5C 307.458,363.953 308.292,364.619 309,365.5C 309.483,364.552 309.649,363.552 309.5,362.5 Z"/></g>
<g><path style="opacity:1" fill="#212121" d="M 241.5,414.5 C 241.169,420.654 240.003,426.654 238,432.5C 235.878,435.183 234.378,434.85 233.5,431.5C 233.683,429.012 234.683,427.012 236.5,425.5C 237.132,419.404 238.132,413.404 239.5,407.5C 240.117,407.389 240.617,407.056 241,406.5C 241.497,409.146 241.664,411.813 241.5,414.5 Z"/></g>
<g><path style="opacity:1" fill="#2d2d2d" d="M 309.5,423.5 C 319.5,434.167 329.5,444.833 339.5,455.5C 338.624,455.369 337.957,455.702 337.5,456.5C 338.193,457.518 338.859,458.518 339.5,459.5C 335.263,456.772 331.429,453.439 328,449.5C 320.988,441.988 314.154,434.321 307.5,426.5C 309.048,426.179 309.715,425.179 309.5,423.5 Z"/></g>
<g><path style="opacity:1" fill="#272727" d="M 161.5,420.5 C 161.5,421.833 162.167,422.5 163.5,422.5C 156.496,435.174 149.496,447.841 142.5,460.5C 142.196,458.204 141.196,457.871 139.5,459.5C 146.008,446.003 153.341,433.003 161.5,420.5 Z"/></g>
<g><path style="opacity:1" fill="#232423" d="M 140.5,422.5 C 140.157,424.483 140.824,425.817 142.5,426.5C 139.874,440.504 136.541,454.337 132.5,468C 133.102,469.563 133.935,469.396 135,467.5C 136.274,464.609 137.774,461.942 139.5,459.5C 141.196,457.871 142.196,458.204 142.5,460.5C 139.662,466.85 136.328,472.85 132.5,478.5C 131.167,478.5 129.833,478.5 128.5,478.5C 128.179,477.183 127.846,475.849 127.5,474.5C 131.862,457.05 136.196,439.717 140.5,422.5 Z"/></g>
<g><path style="opacity:1" fill="#7d8280" d="M 340.5,453.5 C 341.776,454.386 341.776,455.386 340.5,456.5C 339.893,456.376 339.56,456.043 339.5,455.5C 340.338,455.158 340.672,454.492 340.5,453.5 Z"/></g>
<g><path style="opacity:1" fill="#191c1b" d="M 343.5,451.5 C 346.521,455.199 346.021,458.532 342,461.5C 341.005,460.934 340.172,460.267 339.5,459.5C 338.859,458.518 338.193,457.518 337.5,456.5C 337.957,455.702 338.624,455.369 339.5,455.5C 339.56,456.043 339.893,456.376 340.5,456.5C 341.776,455.386 341.776,454.386 340.5,453.5C 340.5,453.167 340.5,452.833 340.5,452.5C 340.369,451.761 340.536,451.094 341,450.5C 341.671,451.252 342.504,451.586 343.5,451.5 Z"/></g>
</svg>
