<?xml version="1.0" encoding="UTF-8"?>
<svg version="1.1" xmlns="http://www.w3.org/2000/svg" width="69" height="66">
<path d="M0 0 C6.23792713 4.85785475 10.91252447 11.80402975 12.078125 19.6875 C12.37582509 26.68896497 10.69911565 33.09722685 6.953125 39 C0.63157599 45.63086027 -6.38748931 49.86359053 -15.546875 50.125 C-23.55001626 50.04249339 -29.08943939 48.27609701 -35.046875 42.8828125 C-41.61719908 35.84709046 -43.5351497 29.45758367 -43.26171875 19.8984375 C-42.5515928 11.83700765 -39.09257364 6.0634516 -32.984375 0.75 C-21.71872218 -6.25203652 -11.51493525 -7.25350252 0 0 Z " fill="#1A2753" transform="translate(50.984375,10.25)"/>
<path d="M0 0 C2.7603078 2.16675519 2.68531995 4.18018857 3.12109375 7.59375 C3.270625 8.68945312 3.42015625 9.78515625 3.57421875 10.9140625 C3.6721875 11.75710937 3.77015625 12.60015625 3.87109375 13.46875 C3.08347656 13.77296875 2.29585937 14.0771875 1.484375 14.390625 C-1.18640381 15.49247097 -2.51426266 16.08927524 -4.12890625 18.46875 C-4.37939261 21.59424017 -4.37939261 21.59424017 -4.12890625 24.46875 C-2.80890625 23.80875 -1.48890625 23.14875 -0.12890625 22.46875 C-0.12890625 24.44875 -0.12890625 26.42875 -0.12890625 28.46875 C-0.87140625 28.22125 -1.61390625 27.97375 -2.37890625 27.71875 C-3.28640625 27.63625 -4.19390625 27.55375 -5.12890625 27.46875 C-7.33748285 29.34383162 -7.33748285 29.34383162 -9.12890625 31.46875 C-9.78890625 31.46875 -10.44890625 31.46875 -11.12890625 31.46875 C-11.12890625 32.12875 -11.12890625 32.78875 -11.12890625 33.46875 C-12.11890625 33.46875 -13.10890625 33.46875 -14.12890625 33.46875 C-14.12890625 34.12875 -14.12890625 34.78875 -14.12890625 35.46875 C-12.80890625 35.46875 -11.48890625 35.46875 -10.12890625 35.46875 C-9.78859375 36.335 -9.78859375 36.335 -9.44140625 37.21875 C-7.79974518 40.03302613 -5.69331572 41.49612733 -3.12890625 43.46875 C-2.79890625 44.12875 -2.46890625 44.78875 -2.12890625 45.46875 C4.09106178 48.86145983 11.36693754 47.81385654 18.015625 46.24609375 C20.16919367 45.5601247 20.16919367 45.5601247 21.43359375 42.84375 C21.57796875 42.06 21.72234375 41.27625 21.87109375 40.46875 C22.53109375 40.46875 23.19109375 40.46875 23.87109375 40.46875 C24.01546875 39.355 24.15984375 38.24125 24.30859375 37.09375 C24.87109375 33.46875 24.87109375 33.46875 25.87109375 31.46875 C26.53109375 31.46875 27.19109375 31.46875 27.87109375 31.46875 C26.86300991 23.36428647 25.25072522 15.87347982 22.578125 8.1484375 C21.87109375 5.46875 21.87109375 5.46875 22.87109375 2.46875 C29.06576491 6.89351511 33.47402262 12.532432 35.57421875 19.953125 C36.71243873 27.72271358 34.99943076 35.11500683 30.80859375 41.71875 C24.48704474 48.34961027 17.46797944 52.58234053 8.30859375 52.84375 C0.30545249 52.76124339 -5.23397064 50.99484701 -11.19140625 45.6015625 C-17.76173033 38.56584046 -19.67968095 32.17633367 -19.40625 22.6171875 C-18.68391859 14.41719991 -15.10820567 9.04288129 -9.12890625 3.46875 C-3.55131139 -0.88619881 -3.55131139 -0.88619881 0 0 Z " fill="#435587" transform="translate(27.12890625,7.53125)"/>
<path d="M0 0 C2 2 2 2 2.1875 5.875 C2.120382 8.71460774 1.90494365 11.28516905 1 14 C0.34 14 -0.32 14 -1 14 C-1.144375 14.763125 -1.28875 15.52625 -1.4375 16.3125 C-3.54700049 19.94084084 -5.62405834 20.39088717 -9.55859375 21.49609375 C-15.72699491 22.76925175 -20.55634373 22.50813404 -26 19 C-28.79648597 16.45774003 -30.90316661 14.14525008 -33 11 C-32.875 8.9375 -32.875 8.9375 -32 7 C-29.85331506 5.61504198 -28.56128588 5 -26 5 C-25.01 4.67 -24.02 4.34 -23 4 C-22.34 4 -21.68 4 -21 4 C-18.71897569 3.54379514 -17.10277777 3.06509259 -15.125 1.8125 C-13 1 -13 1 -10.1875 2.0625 C-5.73588714 3.3717979 -4.03498708 2.09819328 0 0 Z " fill="#0D1430" transform="translate(50,34)"/>
<path d="M0 0 C6.1822674 2.90930231 10.33651261 8.81690428 13 15 C14.75019329 22.38239426 13.81982885 29.01124772 11 36 C6.99379932 42.31280108 0.10527271 47.63157576 -7 50 C-16.03859598 50.82275906 -23.5418638 50.51369355 -31 45 C-36.59244699 39.93714079 -40.77123995 34.42962647 -41.171875 26.671875 C-41.18586074 23.44116856 -41.13105299 20.22778661 -41 17 C-40.67 17 -40.34 17 -40 17 C-39.98582031 17.75023438 -39.97164062 18.50046875 -39.95703125 19.2734375 C-39.61273867 26.6617701 -38.61861975 33.01962504 -34 39 C-32.06542634 40.40305443 -30.28778499 41.32667957 -28.0625 42.18359375 C-26 43 -26 43 -23.64453125 44.5703125 C-18.23359691 47.4955739 -11.37793076 46.79668178 -5.515625 45.4140625 C-1.29118484 43.68299492 0.51917275 41.6291654 2.4375 37.5 C6.71562755 26.29629377 4.86086669 17.46619679 1.09375 6.44140625 C0 3 0 3 0 0 Z " fill="#5CB2EB" transform="translate(49,10)"/>
<path d="M0 0 C3.63523993 2.77719231 3.91588368 6.28769806 4.65234375 10.6328125 C5.10907264 13.31090461 5.75292622 15.32558708 6.85546875 17.78125 C8.69529184 22.32331326 8.43492727 26.83122187 8.16796875 31.65625 C7.83796875 31.65625 7.50796875 31.65625 7.16796875 31.65625 C7.11898437 31.06457031 7.07 30.47289062 7.01953125 29.86328125 C6.42992675 23.54599909 6.42992675 23.54599909 4.16796875 17.65625 C3.50796875 17.32625 2.84796875 16.99625 2.16796875 16.65625 C2.16796875 15.33625 2.16796875 14.01625 2.16796875 12.65625 C-0.14203125 13.31625 -2.45203125 13.97625 -4.83203125 14.65625 C-5.16203125 14.32625 -5.49203125 13.99625 -5.83203125 13.65625 C-8.50261976 13.51509839 -11.15635363 13.61377893 -13.83203125 13.65625 C-14.49203125 14.97625 -15.15203125 16.29625 -15.83203125 17.65625 C-16.49203125 17.65625 -17.15203125 17.65625 -17.83203125 17.65625 C-17.83203125 16.99625 -17.83203125 16.33625 -17.83203125 15.65625 C-19.15203125 15.98625 -20.47203125 16.31625 -21.83203125 16.65625 C-21.50203125 15.99625 -21.17203125 15.33625 -20.83203125 14.65625 C-18.26953125 14.03125 -18.26953125 14.03125 -15.83203125 13.65625 C-16.16203125 12.975625 -16.49203125 12.295 -16.83203125 11.59375 C-18.0051044 8.14784762 -17.97383618 5.27227578 -17.83203125 1.65625 C-18.82203125 1.32625 -19.81203125 0.99625 -20.83203125 0.65625 C-15.41960686 -4.75617439 -6.41233107 -2.71626732 0 0 Z " fill="#1E2E63" transform="translate(46.83203125,7.34375)"/>
<path d="M0 0 C0.25 5.625 0.25 5.625 -2 9 C-2.66 9 -3.32 9 -4 9 C-4.12503906 9.71800781 -4.25007813 10.43601562 -4.37890625 11.17578125 C-4.99952976 13.99786175 -5.86326301 16.50798812 -6.9375 19.1875 C-7.27652344 20.04730469 -7.61554687 20.90710938 -7.96484375 21.79296875 C-9 24 -9 24 -11 26 C-12.32 26 -13.64 26 -15 26 C-16.41634833 23.16730334 -16.3463005 20.52533562 -16.5625 17.375 C-16.64628906 16.18648437 -16.73007812 14.99796875 -16.81640625 13.7734375 C-16.90728516 12.40058594 -16.90728516 12.40058594 -17 11 C-16.34 11.66 -15.68 12.32 -15 13 C-14.65388672 12.20335937 -14.65388672 12.20335937 -14.30078125 11.390625 C-12.18810777 6.81455755 -10.36183544 3.79604836 -6 1 C-3 0 -3 0 0 0 Z " fill="#B8C5E3" transform="translate(26,12)"/>
<path d="M0 0 C5.59582176 2.63332789 9.27178652 7.54357305 12 13 C12.52388231 20.07241112 10.87163178 26.2116982 9 33 C8.66251623 34.33228886 8.32734761 35.6651845 8 37 C5.525 37.495 5.525 37.495 3 38 C3.144375 37.46632812 3.28875 36.93265625 3.4375 36.3828125 C6.20898778 25.25836849 4.73842187 17.09755944 1.09375 6.44140625 C0 3 0 3 0 0 Z " fill="#8DA3CF" transform="translate(49,10)"/>
<path d="M0 0 C0.33 0 0.66 0 1 0 C1.33 3.63 1.66 7.26 2 11 C6.455 10.01 6.455 10.01 11 9 C10.01 10.485 10.01 10.485 9 12 C8.34 12 7.68 12 7 12 C7 12.66 7 13.32 7 14 C6.01 14 5.02 14 4 14 C4 14.66 4 15.32 4 16 C5.32 16 6.64 16 8 16 C8.3403125 16.86625 8.3403125 16.86625 8.6875 17.75 C10.32916107 20.56427613 12.43559053 22.02737733 15 24 C15.33 24.66 15.66 25.32 16 26 C22.21996803 29.39270983 29.49584379 28.34510654 36.14453125 26.77734375 C38.29809992 26.0913747 38.29809992 26.0913747 39.5625 23.375 C39.706875 22.59125 39.85125 21.8075 40 21 C40.66 21 41.32 21 42 21 C42.185625 19.329375 42.185625 19.329375 42.375 17.625 C43 14 43 14 45 12 C44.23952562 18.23588995 43.07082813 23.3605944 38 27.375 C31.86740896 30.69682015 25.85021175 30.74582187 19 30 C16.57786052 28.96799145 14.72956848 27.7987405 12.63671875 26.21484375 C10.94943612 24.81941605 10.94943612 24.81941605 8.3125 24.1875 C3.79141521 21.86586186 1.55691169 16.67073506 0 12 C-0.068991 9.93854893 -0.08467727 7.87498599 -0.0625 5.8125 C-0.05347656 4.72582031 -0.04445313 3.63914062 -0.03515625 2.51953125 C-0.02355469 1.68808594 -0.01195312 0.85664063 0 0 Z " fill="#184999" transform="translate(9,27)"/>
<path d="M0 0 C4.75 -0.125 4.75 -0.125 7 1 C7.99 0.67 8.98 0.34 10 0 C10.99 0.33 11.98 0.66 13 1 C12.67 1.66 12.34 2.32 12 3 C11.01 3.33 10.02 3.66 9 4 C9 4.66 9 5.32 9 6 C9.99 6.33 10.98 6.66 12 7 C11.67 8.32 11.34 9.64 11 11 C6.95037684 12.15703519 4.74854566 11.92492885 1 10 C0.34 9.34 -0.32 8.68 -1 8 C-1.33 8.66 -1.66 9.32 -2 10 C-3.65 10 -5.3 10 -7 10 C-7.625 7.625 -7.625 7.625 -8 5 C-6 3 -6 3 -3.4375 2.5 C-2.633125 2.335 -1.82875 2.17 -1 2 C-0.67 1.34 -0.34 0.68 0 0 Z " fill="#141C3B" transform="translate(36,26)"/>
<path d="M0 0 C1.4375 2.6875 1.4375 2.6875 2 5 C1.484375 4.835 0.96875 4.67 0.4375 4.5 C-2.83960853 3.82777261 -5.66389912 3.6967181 -9 4 C-10.98239527 5.86124923 -10.98239527 5.86124923 -12 8 C-13.9375 7.25 -13.9375 7.25 -16 6 C-16.3721042 4.67696283 -16.70630173 3.34262065 -17 2 C-17.99 1.34 -18.98 0.68 -20 0 C-14.59847232 -5.40152768 -6.03644163 -3.43248642 0 0 Z " fill="#141F48" transform="translate(46,8)"/>
<path d="M0 0 C0.33 0 0.66 0 1 0 C1.01417969 0.75023438 1.02835938 1.50046875 1.04296875 2.2734375 C1.38782222 9.67380666 2.3927789 16.00148936 7 22 C9.50925877 23.87658241 12.0961622 24.8755816 15 26 C15.87398437 26.55300781 15.87398437 26.55300781 16.765625 27.1171875 C23.27768718 31.222618 30.60371871 30.34670069 38 30 C37.67 30.66 37.34 31.32 37 32 C29.89876481 34.3670784 21.37798242 34.12463656 14.5625 31 C7.58849366 26.93947657 2.18199091 20.82949681 0 13 C-0.2244647 8.65354725 -0.17650978 4.34737055 0 0 Z " fill="#A8DFF9" transform="translate(8,27)"/>
<path d="M0 0 C0.99 0 1.98 0 3 0 C3 1.65 3 3.3 3 5 C2.01 5.33 1.02 5.66 0 6 C-0.103125 7.03125 -0.20625 8.0625 -0.3125 9.125 C-0.99952183 12.99730484 -1.93732372 15.66798447 -4 19 C-4.99 19.33 -5.98 19.66 -7 20 C-8.57170996 16.85658007 -8.23175783 13.44228549 -8 10 C-7.67 9.01 -7.34 8.02 -7 7 C-6.01 7 -5.02 7 -4 7 C-3.71125 6.21625 -3.4225 5.4325 -3.125 4.625 C-2 2 -2 2 0 0 Z " fill="#F5F8FD" transform="translate(19,15)"/>
<path d="M0 0 C1.875 0.3125 1.875 0.3125 4 1 C4.66 1.99 5.32 2.98 6 4 C6.99 4.33 7.98 4.66 9 5 C9 5.66 9 6.32 9 7 C9.66 7 10.32 7 11 7 C11 7.66 11 8.32 11 9 C13.39614575 8.85834107 15.79182897 8.71181159 18.1875 8.5625 C18.86103516 8.52318359 19.53457031 8.48386719 20.22851562 8.44335938 C23.89699102 8.21072435 27.41694206 7.82792989 31 7 C30 10 30 10 28.21484375 10.94921875 C21.75552236 13.04323546 16.39946494 14.26646733 9.8125 11.8125 C4.94853691 8.67794601 1.75543557 5.58547681 0 0 Z " fill="#08174C" transform="translate(17,43)"/>
<path d="M0 0 C1.32 0.33 2.64 0.66 4 1 C3.3125 2.9375 3.3125 2.9375 2 5 C-0.625 5.75 -0.625 5.75 -3 6 C-3 7.65 -3 9.3 -3 11 C-1.35 11 0.3 11 2 11 C1.67 11.66 1.34 12.32 1 13 C-5 15 -5 15 -8 14 C-8.33 14.66 -8.66 15.32 -9 16 C-9.66 15.67 -10.32 15.34 -11 15 C-11.5775 15.495 -12.155 15.99 -12.75 16.5 C-15 18 -15 18 -19 18 C-19 17.34 -19 16.68 -19 16 C-18.01 16 -17.02 16 -16 16 C-16 15.34 -16 14.68 -16 14 C-14.67732273 12.98594743 -13.34275169 11.98731742 -12 11 C-11.34 10.01 -10.68 9.02 -10 8 C-10 8.66 -10 9.32 -10 10 C-9.01 9.67 -8.02 9.34 -7 9 C-7 9.66 -7 10.32 -7 11 C-6.34 11 -5.68 11 -5 11 C-5 8.69 -5 6.38 -5 4 C-5.99 3.67 -6.98 3.34 -8 3 C-6.865625 2.87625 -5.73125 2.7525 -4.5625 2.625 C-3.386875 2.41875 -2.21125 2.2125 -1 2 C-0.67 1.34 -0.34 0.68 0 0 Z M3 7 C3.33 7.99 3.66 8.98 4 10 C3.01 10.495 3.01 10.495 2 11 C2.33 9.68 2.66 8.36 3 7 Z " fill="#111C3C" transform="translate(32,25)"/>
<path d="M0 0 C0.99 0.33 1.98 0.66 3 1 C4.48882438 5.07467725 5.26270217 8.66541415 5 13 C4.67 12.34 4.34 11.68 4 11 C-0.62 11 -5.24 11 -10 11 C-10.33 9.68 -10.66 8.36 -11 7 C-9.3125 5.375 -9.3125 5.375 -7 4 C-4.25 4.8125 -4.25 4.8125 -2 6 C-1.67 5.34 -1.34 4.68 -1 4 C-0.01 4.33 0.98 4.66 2 5 C1.34 3.35 0.68 1.7 0 0 Z " fill="#2A3B6F" transform="translate(46,8)"/>
<path d="M0 0 C3.98175544 2.10148204 6.35039045 4.36905358 9 8 C8.67 8.66 8.34 9.32 8 10 C7.01 9.34 6.02 8.68 5 8 C5.144375 8.6290625 5.28875 9.258125 5.4375 9.90625 C6.63014447 15.40566619 7.2082715 20.37666943 7 26 C6.67 26 6.34 26 6 26 C5.81824219 25.09378906 5.63648438 24.18757813 5.44921875 23.25390625 C4.1473505 16.94485241 2.8037882 10.81221144 0.55078125 4.76953125 C0 3 0 3 0 0 Z " fill="#677AA6" transform="translate(49,10)"/>
<path d="M0 0 C0.66 0.33 1.32 0.66 2 1 C3.49263965 6.65137781 3.11114417 12.57511832 3.0625 18.375 C3.05798828 19.39722656 3.05347656 20.41945313 3.04882812 21.47265625 C3.037103 23.98183194 3.02069176 26.4908849 3 29 C1.35 29.33 -0.3 29.66 -2 30 C-1.68950274 28.56206608 -1.3765224 27.1246682 -1.0625 25.6875 C-0.88847656 24.88699219 -0.71445312 24.08648437 -0.53515625 23.26171875 C0 21 0 21 1 18 C1.15754704 16.04322445 1.15754704 16.04322445 1.125 14 C1.12757812 13.319375 1.13015625 12.63875 1.1328125 11.9375 C1.06631126 9.78125219 1.06631126 9.78125219 0 7 C-0.03954234 4.66700175 -0.04401732 2.33291811 0 0 Z " fill="#788DBC" transform="translate(54,18)"/>
<path d="M0 0 C2.02350324 3.03525486 2.32124018 4.19426202 2.625 7.6875 C2.69976562 8.49574219 2.77453125 9.30398437 2.8515625 10.13671875 C2.90054687 10.75160156 2.94953125 11.36648437 3 12 C6.97497544 8.59287819 8.86793788 4.67239145 11 0 C11.66 0.33 12.32 0.66 13 1 C12.21447823 2.96080624 11.42137877 4.91857816 10.625 6.875 C9.96371094 8.51082031 9.96371094 8.51082031 9.2890625 10.1796875 C8 13 8 13 6 15 C4.68 15 3.36 15 2 15 C0.58365167 12.16730334 0.6536995 9.52533562 0.4375 6.375 C0.35371094 5.18648437 0.26992187 3.99796875 0.18359375 2.7734375 C0.12300781 1.85820312 0.06242188 0.94296875 0 0 Z " fill="#96AAD0" transform="translate(9,23)"/>
<path d="M0 0 C0.33 0 0.66 0 1 0 C2.3359863 7.42035762 2.06117232 14.00303469 -1 21 C-1.99 21.66 -2.98 22.32 -4 23 C-4.625 21.25 -4.625 21.25 -5 19 C-4.71125 18.4534375 -4.4225 17.906875 -4.125 17.34375 C-2.57346245 14.1113801 -2.0231589 10.74873531 -1.375 7.25 C-1.17390625 6.20392578 -1.17390625 6.20392578 -0.96875 5.13671875 C-0.64056736 3.42548068 -0.31956498 1.71286829 0 0 Z " fill="#A7CDE7" transform="translate(61,25)"/>
<path d="M0 0 C1.32 0.33 2.64 0.66 4 1 C2.68724357 3.62551287 1.6756418 3.69506505 -1.0625 4.625 C-6.97390712 6.46410444 -11.6419888 7.01057623 -17.5 4.5 C-18.325 4.005 -19.15 3.51 -20 3 C-16.6717269 1.33586345 -13.00266027 2.18132594 -9.375 2.4375 C-8.57320312 2.48970703 -7.77140625 2.54191406 -6.9453125 2.59570312 C-4.96320897 2.72548371 -2.98155501 2.86209735 -1 3 C-0.67 2.01 -0.34 1.02 0 0 Z " fill="#081F67" transform="translate(44,50)"/>
<path d="M0 0 C4.62 0 9.24 0 14 0 C14 0.66 14 1.32 14 2 C14.99 2.33 15.98 2.66 17 3 C19.28020848 8.64051572 19.21802745 13.98001986 19 20 C18.67 20 18.34 20 18 20 C17.95101562 19.40832031 17.90203125 18.81664063 17.8515625 18.20703125 C17.261958 11.88974909 17.261958 11.88974909 15 6 C14.34 5.67 13.68 5.34 13 5 C13 3.68 13 2.36 13 1 C11.96875 1.37125 10.9375 1.7425 9.875 2.125 C5.66624045 3.07536506 3.87836244 2.70269571 0 1 C0 0.67 0 0.34 0 0 Z " fill="#26366A" transform="translate(36,19)"/>
<path d="M0 0 C0 0.99 0 1.98 0 3 C-7.13846154 5.33846154 -7.13846154 5.33846154 -11.5 3.625 C-12.325 3.08875 -13.15 2.5525 -14 2 C-14 1.34 -14 0.68 -14 0 C-9.32517708 -1.49594333 -4.64398011 -1.54799337 0 0 Z " fill="#434962" transform="translate(42,6)"/>
<path d="M0 0 C0 0.66 0 1.32 0 2 C-1.0725 2.556875 -2.145 3.11375 -3.25 3.6875 C-8.80962574 6.88204301 -11.33271598 11.26533937 -14 17 C-14.33 17 -14.66 17 -15 17 C-14.87318533 10.91289581 -12.87801135 8.12746336 -8.7890625 3.69921875 C-5.66863509 0.73549403 -4.40866343 0 0 0 Z " fill="#525D7A" transform="translate(25,9)"/>
<path d="M0 0 C0.54785156 0.0721875 1.09570312 0.144375 1.66015625 0.21875 C9.45989043 1.13188961 17.15801191 1.09410386 25 1 C24.67 1.66 24.34 2.32 24 3 C17.57325709 5.14224764 8.89907313 5.23683849 2.625 2.5 C1.325625 1.7575 1.325625 1.7575 0 1 C0 0.67 0 0.34 0 0 Z " fill="#9AECFC" transform="translate(21,56)"/>
<path d="M0 0 C1.51329941 4.35197216 0.22065386 6.86641102 -1.69921875 10.87109375 C-3.6321952 14.03467383 -5.65624399 15.46187223 -9 17 C-12.375 17.25 -12.375 17.25 -15 17 C-12.23776722 14.23776722 -9.79293383 14.42143709 -6 14 C-5.34 12.35 -4.68 10.7 -4 9 C-3.34 9 -2.68 9 -2 9 C-1.855625 7.88625 -1.71125 6.7725 -1.5625 5.625 C-1 2 -1 2 0 0 Z " fill="#1D468F" transform="translate(53,39)"/>
<path d="M0 0 C2 2 2 2 2.265625 4.09375 C2.26046875 4.8878125 2.2553125 5.681875 2.25 6.5 C2.25515625 7.2940625 2.2603125 8.088125 2.265625 8.90625 C2 11 2 11 0 13 C-0.66 11.02 -1.32 9.04 -2 7 C-2.66 7 -3.32 7 -4 7 C-4.66 5.68 -5.32 4.36 -6 3 C-4.35 3 -2.7 3 -1 3 C-0.67 2.01 -0.34 1.02 0 0 Z " fill="#162247" transform="translate(52,28)"/>
<path d="M0 0 C1.32 0 2.64 0 4 0 C4 0.66 4 1.32 4 2 C5.65 2 7.3 2 9 2 C9.33 2.99 9.66 3.98 10 5 C6.7 5 3.4 5 0 5 C-0.33 3.68 -0.66 2.36 -1 1 C-0.67 0.67 -0.34 0.34 0 0 Z " fill="#2F4079" transform="translate(36,14)"/>
<path d="M0 0 C0.99 0.33 1.98 0.66 3 1 C3.33 1.99 3.66 2.98 4 4 C4.99 4.33 5.98 4.66 7 5 C7.33 4.34 7.66 3.68 8 3 C7.67 4.32 7.34 5.64 7 7 C4.07723164 7.83507667 2.23982504 8.05450569 -0.75 7.375 C-3 6 -3 6 -3.8125 3.375 C-3.874375 2.59125 -3.93625 1.8075 -4 1 C-3.01 2.485 -3.01 2.485 -2 4 C-1.01 4.33 -0.02 4.66 1 5 C0.67 3.35 0.34 1.7 0 0 Z " fill="#686E86" transform="translate(40,30)"/>
<path d="M0 0 C2.125 0.375 2.125 0.375 4 1 C5.125 4.75 5.125 4.75 4 7 C2.35 7 0.7 7 -1 7 C-1.625 4.625 -1.625 4.625 -2 2 C-1.34 1.34 -0.68 0.68 0 0 Z " fill="#5A627E" transform="translate(30,29)"/>
<path d="M0 0 C0.66 0.33 1.32 0.66 2 1 C1.67 1.66 1.34 2.32 1 3 C1.66 3 2.32 3 3 3 C3.36666667 10.33333333 3.36666667 10.33333333 1.625 13.5 C0 15 0 15 -2 15 C-2.33 15.66 -2.66 16.32 -3 17 C-3 16.01 -3 15.02 -3 14 C-2.525625 13.566875 -2.05125 13.13375 -1.5625 12.6875 C0.62100982 10.3293094 0.65266951 8.12597439 1 5 C-0.65 5.33 -2.3 5.66 -4 6 C-3.67 5.34 -3.34 4.68 -3 4 C-2.01 4 -1.02 4 0 4 C0 3.34 0 2.68 0 2 C-0.66 1.67 -1.32 1.34 -2 1 C-1.34 0.67 -0.68 0.34 0 0 Z " fill="#7384B0" transform="translate(25,7)"/>
<path d="M0 0 C0.91058531 3.07322544 1.08886184 5.80097361 1 9 C1.99 8.67 2.98 8.34 4 8 C4.185625 6.7934375 4.185625 6.7934375 4.375 5.5625 C4.58125 4.716875 4.7875 3.87125 5 3 C5.66 2.67 6.32 2.34 7 2 C6.60246179 3.46366342 6.18118616 4.9208935 5.75 6.375 C5.51796875 7.18710937 5.2859375 7.99921875 5.046875 8.8359375 C3.7785108 11.45785454 2.67576692 11.99382318 0 13 C-1.57170996 9.85658007 -1.23175783 6.44228549 -1 3 C-0.67 2.01 -0.34 1.02 0 0 Z " fill="#D1DBF1" transform="translate(12,22)"/>
<path d="M0 0 C1.32 0.33 2.64 0.66 4 1 C3.3125 2.9375 3.3125 2.9375 2 5 C0.34178227 5.37309899 -1.32577014 5.70700977 -3 6 C-3.99 7.485 -3.99 7.485 -5 9 C-5 7.35 -5 5.7 -5 4 C-5.99 3.67 -6.98 3.34 -8 3 C-6.865625 2.87625 -5.73125 2.7525 -4.5625 2.625 C-3.386875 2.41875 -2.21125 2.2125 -1 2 C-0.67 1.34 -0.34 0.68 0 0 Z " fill="#10183D" transform="translate(32,25)"/>
<path d="M0 0 C0.33 0 0.66 0 1 0 C1.33 3.63 1.66 7.26 2 11 C0.35 11.33 -1.3 11.66 -3 12 C-2.68950274 10.56206608 -2.3765224 9.1246682 -2.0625 7.6875 C-1.88847656 6.88699219 -1.71445312 6.08648437 -1.53515625 5.26171875 C-1 3 -1 3 0 0 Z " fill="#6987C5" transform="translate(55,36)"/>
<path d="M0 0 C0.33 0.66 0.66 1.32 1 2 C1.66 2.33 2.32 2.66 3 3 C2.34 3 1.68 3 1 3 C1 3.66 1 4.32 1 5 C0.34 5 -0.32 5 -1 5 C-1.226875 5.639375 -1.45375 6.27875 -1.6875 6.9375 C-3 9 -3 9 -5.625 9.75 C-6.40875 9.8325 -7.1925 9.915 -8 10 C-8 9.34 -8 8.68 -8 8 C-7.01 8 -6.02 8 -5 8 C-5 7.34 -5 6.68 -5 6 C-4.360625 5.525625 -3.72125 5.05125 -3.0625 4.5625 C-0.71627037 3.0908635 -0.71627037 3.0908635 0 0 Z " fill="#182355" transform="translate(21,33)"/>
<path d="M0 0 C1.485 0.99 1.485 0.99 3 2 C4.32 1.34 5.64 0.68 7 0 C7 1.98 7 3.96 7 6 C6.21625 5.814375 5.4325 5.62875 4.625 5.4375 C2.02910225 4.74037734 2.02910225 4.74037734 0 6 C0 4.02 0 2.04 0 0 Z " fill="#7E86A4" transform="translate(20,30)"/>
<path d="M0 0 C0.33 0 0.66 0 1 0 C1.33 3.63 1.66 7.26 2 11 C3.32 11.33 4.64 11.66 6 12 C5.360625 12.12375 4.72125 12.2475 4.0625 12.375 C3.381875 12.58125 2.70125 12.7875 2 13 C1.67 13.66 1.34 14.32 1 15 C-0.09506492 11.71480525 -0.09960608 9.26336585 -0.0625 5.8125 C-0.05347656 4.72582031 -0.04445313 3.63914062 -0.03515625 2.51953125 C-0.02355469 1.68808594 -0.01195312 0.85664063 0 0 Z " fill="#3667A0" transform="translate(9,27)"/>
<path d="M0 0 C4.19360449 0.67097672 7.40334352 2.8558394 11 5 C8 6 8 6 5.5 5.3125 C2.78259946 3.88586472 1.62495236 2.56571425 0 0 Z " fill="#4DBEF3" transform="translate(17,51)"/>
<path d="M0 0 C2.3125 0.1875 2.3125 0.1875 5 1 C6.8125 3.5625 6.8125 3.5625 8 6 C5.6875 5.8125 5.6875 5.8125 3 5 C1.1875 2.4375 1.1875 2.4375 0 0 Z " fill="#266BC4" transform="translate(12,45)"/>
<path d="M0 0 C1.32 0 2.64 0 4 0 C4.33 1.98 4.66 3.96 5 6 C3.68 6 2.36 6 1 6 C0.67 4.02 0.34 2.04 0 0 Z " fill="#8B9DC3" transform="translate(55,19)"/>
<path d="M0 0 C1.65 0.99 3.3 1.98 5 3 C4.67 3.66 4.34 4.32 4 5 C3.67 5 3.34 5 3 5 C3 6.98 3 8.96 3 11 C2.67 11 2.34 11 2 11 C1.34 7.37 0.68 3.74 0 0 Z " fill="#5D6B95" transform="translate(49,10)"/>
<path d="M0 0 C0.66 0 1.32 0 2 0 C2.33 1.98 2.66 3.96 3 6 C1.68 5.67 0.36 5.34 -1 5 C-0.67 3.35 -0.34 1.7 0 0 Z " fill="#2D344E" transform="translate(38,29)"/>
<path d="M0 0 C0.598125 0.20625 1.19625 0.4125 1.8125 0.625 C-2.9375 4.625 -2.9375 4.625 -5.1875 4.625 C-5.1875 3.635 -5.1875 2.645 -5.1875 1.625 C-2.1875 -0.375 -2.1875 -0.375 0 0 Z " fill="#6AD4F6" transform="translate(51.1875,52.375)"/>
<path d="M0 0 C0.66 0 1.32 0 2 0 C2.226875 0.556875 2.45375 1.11375 2.6875 1.6875 C4.35896766 4.63246684 6.55276352 6.68156544 9 9 C4.12744585 7.64651274 2.47594119 5.3099717 0 1 C0 0.67 0 0.34 0 0 Z " fill="#0B297B" transform="translate(15,43)"/>
<path d="M0 0 C1.32 0 2.64 0 4 0 C4 1.32 4 2.64 4 4 C2.35 4 0.7 4 -1 4 C-0.67 2.68 -0.34 1.36 0 0 Z " fill="#3A4B83" transform="translate(36,14)"/>
</svg>
