<svg xmlns="http://www.w3.org/2000/svg" version="1.1" width="NaN" height="NaN" viewBox="NaN NaN NaN NaN">
<path d="M0 0 C22.77 0 45.54 0 69 0 C71 5 71 5 71 8 C71.99 8.495 71.99 8.495 73 9 C73.88208008 10.7590332 73.88208008 10.7590332 74.76953125 13.05078125 C75.09888672 13.88939697 75.42824219 14.7280127 75.76757812 15.59204102 C76.11240234 16.48979248 76.45722656 17.38754395 76.8125 18.3125 C77.52651659 20.14094822 78.24135857 21.96907435 78.95703125 23.796875 C79.47837646 25.13395508 79.47837646 25.13395508 80.01025391 26.49804688 C81.6459189 30.63280141 83.40990088 34.70954248 85.1875 38.78515625 C86 41 86 41 86 44 C86.66 44.33 87.32 44.66 88 45 C88.71728235 46.98241027 89.3769588 48.98598309 90 51 C90.68959986 52.71598104 91.39895256 54.42411964 92.125 56.125 C94.37922071 61.47466664 96.54490565 66.85474136 98.6875 72.25 C103.31832299 83.89146862 108.15379364 95.44688337 113 107 C113.66 107 114.32 107 115 107 C117.28319312 101.62675395 119.56173514 96.25156925 121.8359375 90.87451172 C122.61069381 89.04453992 123.38673159 87.21511012 124.1640625 85.38623047 C125.27939619 82.76149748 126.39014798 80.13486722 127.5 77.5078125 C128.0249707 76.27649094 128.0249707 76.27649094 128.56054688 75.02029419 C130.34629721 71.14605186 130.34629721 71.14605186 131 67 C131.66 67 132.32 67 133 67 C133.16653076 66.4743042 133.33306152 65.9486084 133.50463867 65.40698242 C135.4994069 59.25359547 137.83794781 53.28703786 140.3125 47.3125 C140.90961792 45.86230469 140.90961792 45.86230469 141.51879883 44.3828125 C144.16161119 37.98065699 146.84629875 31.59850927 149.59765625 25.2421875 C150.59390481 22.93888302 151.5798217 20.63109764 152.55859375 18.3203125 C152.95171753 17.3931543 152.95171753 17.3931543 153.3527832 16.44726562 C154.0723596 14.74922002 154.79015645 13.05042061 155.5078125 11.3515625 C157.21749272 7.51149542 159.12015311 3.75969378 161 0 C182.78 0 204.56 0 227 0 C227.02254474 23.84296661 227.04097784 47.68592464 227.05181217 71.52889919 C227.05697571 82.59877846 227.0640195 93.66865066 227.07543945 104.73852539 C227.08538454 114.38331054 227.09185301 124.02809057 227.09408849 133.67288071 C227.0953959 138.78306561 227.09848364 143.89323585 227.10573006 149.00341606 C227.1124875 153.80742559 227.11461753 158.61141433 227.11310768 163.41542816 C227.11338413 165.18398463 227.11539088 166.95254175 227.11920547 168.72109413 C227.12413843 171.12487473 227.12299978 173.52857557 227.12025452 175.93235779 C227.12462378 176.99605383 227.12462378 176.99605383 227.12908131 178.08123869 C227.11412121 182.88587879 227.11412121 182.88587879 226 184 C224.41502331 184.10895849 222.82524374 184.14904997 221.23657227 184.16113281 C220.22204483 184.17074036 219.2075174 184.1803479 218.1622467 184.19024658 C217.05811935 184.19449646 215.953992 184.19874634 214.81640625 184.203125 C213.69056625 184.20882507 212.56472626 184.21452515 211.4047699 184.22039795 C209.01814723 184.22986412 206.63151139 184.23638832 204.24487305 184.24023438 C200.58163842 184.24994925 196.91896237 184.28096188 193.25585938 184.3125 C190.94271168 184.31902863 188.62955996 184.32427965 186.31640625 184.328125 C184.66325157 184.3466452 184.66325157 184.3466452 182.97669983 184.36553955 C181.95902023 184.36253845 180.94134064 184.35953735 179.89282227 184.35644531 C178.99427017 184.36009094 178.09571808 184.36373657 177.16993713 184.36749268 C176.45385788 184.24622009 175.73777863 184.12494751 175 184 C172.86761179 180.80141769 172.75135104 180.01635555 172.75949097 176.34931946 C172.75536697 174.91693436 172.75536697 174.91693436 172.75115967 173.45561218 C172.7619455 171.88684074 172.7619455 171.88684074 172.77294922 170.28637695 C172.77265717 169.1837854 172.77236511 168.08119385 172.77206421 166.94519043 C172.77345997 163.29280792 172.78903298 159.64062822 172.8046875 155.98828125 C172.80841675 153.45908215 172.81126414 150.9298816 172.81326294 148.40068054 C172.82012467 142.41898278 172.83589511 136.43737237 172.85596192 130.45570964 C172.87831223 123.64562274 172.88931216 116.83553236 172.89935279 110.02541792 C172.92026113 96.01690482 172.95544253 82.00845641 173 68 C170.969856 72.59821165 168.94007355 77.19658268 166.91059875 81.79508972 C166.22288834 83.35321667 165.5350861 84.9113031 164.84718323 86.46934509 C155.11863901 108.10683201 155.11863901 108.10683201 146 130 C143.29048742 136.72149262 140.41543323 143.2638905 137.11328125 149.71484375 C135.83697726 152.33462563 134.85495316 154.98724426 133.8828125 157.73046875 C132.27394477 161.8665402 130.30824911 165.8457665 128.40234375 169.8515625 C126.96388178 172.93905806 126.96388178 172.93905806 126.00390625 176.0234375 C125 179 125 179 122 185 C110.78 185 99.56 185 88 185 C80.5 167 80.5 167 79.265625 164.02734375 C78.38971836 161.93219671 77.50361161 159.84129564 76.609375 157.75390625 C76.16078125 156.70074219 75.7121875 155.64757812 75.25 154.5625 C74.84265625 153.61503906 74.4353125 152.66757812 74.015625 151.69140625 C73 149 73 149 72.484375 146.21484375 C72.32453125 145.48394531 72.1646875 144.75304687 72 144 C71.34 143.67 70.68 143.34 70 143 C68.9427686 140.44674199 67.97802908 137.91610788 67.0625 135.3125 C65.30100618 130.36139589 63.41092833 125.68314571 61 121 C60.35331411 119.46730353 59.72717183 117.9257257 59.125 116.375 C57.27991112 111.68917049 55.35814691 107.04005811 53.4140625 102.39453125 C52.38129533 99.91531946 51.35502311 97.43404064 50.3359375 94.94921875 C49.89568237 93.87619507 49.89568237 93.87619507 49.4465332 92.78149414 C48.8842828 91.40995098 48.32283173 90.03807968 47.76245117 88.66577148 C45.84619152 83.99392704 43.87076205 79.3484353 41.87866211 74.70849609 C41.60124931 74.06180466 41.32383652 73.41511322 41.03801727 72.74882507 C40.35890049 71.16578799 39.67948098 69.58288079 39 68 C39.00092179 68.59175742 39.00184359 69.18351484 39.00279331 69.79320431 C39.02484925 84.17233302 39.0414119 98.55146023 39.05181217 112.93060207 C39.05697496 119.88416081 39.06401734 126.83770827 39.07543945 133.79125977 C39.08644694 140.49557209 39.09227621 147.19987025 39.09487724 153.90419197 C39.09673202 156.46837613 39.10035364 159.03255962 39.10573006 161.59673882 C39.11293659 165.17445158 39.11399111 168.75211519 39.11352539 172.32983398 C39.11712067 173.40157364 39.12071594 174.47331329 39.12442017 175.57752991 C39.1230455 176.54653229 39.12167084 177.51553467 39.12025452 178.51390076 C39.12117631 179.36102851 39.1220981 180.20815626 39.12304783 181.08095455 C39 183 39 183 38 184 C35.35711643 184.1009825 32.74093041 184.13970742 30.09765625 184.1328125 C29.30475693 184.13376923 28.5118576 184.13472595 27.69493103 184.13571167 C26.0144747 184.13639351 24.33401575 184.13453896 22.65356445 184.13037109 C20.07692555 184.1250299 17.50046152 184.13031228 14.92382812 184.13671875 C13.29427045 184.13605783 11.66471288 184.13477638 10.03515625 184.1328125 C9.26115982 184.13483673 8.48716339 184.13686096 7.68971252 184.13894653 C2.22991166 184.11495583 2.22991166 184.11495583 0 183 C0 122.61 0 62.22 0 0 Z " fill="#009999" transform="translate(966,752)"/>
<path d="M0 0 C20.46 0 40.92 0 62 0 C62.66 1.98 63.32 3.96 64 6 C64.66 6 65.32 6 66 6 C67.33819498 8.6226232 68.6707151 11.24786599 70 13.875 C70.57234375 14.99455078 70.57234375 14.99455078 71.15625 16.13671875 C71.5171875 16.85214844 71.878125 17.56757812 72.25 18.3046875 C72.75273438 19.2944458 72.75273438 19.2944458 73.265625 20.30419922 C74 22 74 22 74 24 C74.66 24.33 75.32 24.66 76 25 C77.29434378 27.25245572 78.50618986 29.50175588 79.6875 31.8125 C82.23133335 36.69117993 84.82804962 41.50951172 87.625 46.25 C90.24277198 50.68729959 92.75721052 55.16347255 95.20703125 59.6953125 C97.11934659 63.21997215 99.0522874 66.73280254 100.98803711 70.24462891 C102.89050769 73.69708268 104.7884172 77.15203097 106.68554688 80.60742188 C107.51641732 82.11977893 108.34831487 83.63157258 109.18164062 85.14257812 C110.1876374 86.96787317 111.18844122 88.79590112 112.1875 90.625 C112.73792969 91.62789062 113.28835938 92.63078125 113.85546875 93.6640625 C115 96 115 96 115 98 C115.66 98 116.32 98 117 98 C118.65 101.63 120.3 105.26 122 109 C122.78677313 105.85290749 123.12287602 103.80224206 123.11352539 100.66685486 C123.1134549 99.80744797 123.1133844 98.94804108 123.11331177 98.06259155 C123.10814545 97.12791046 123.10297913 96.19322937 123.09765625 95.23022461 C123.09619598 94.23959518 123.09473572 93.24896576 123.0932312 92.22831726 C123.08942701 90.07847025 123.08331233 87.92862637 123.07516479 85.77879143 C123.06241372 82.37934111 123.05588892 78.97992975 123.05102539 75.58045959 C123.03959106 68.36612226 123.02034461 61.15181699 123 53.9375 C122.97643135 45.57548312 122.95603122 37.21348456 122.94406128 28.85144234 C122.9375627 25.49720444 122.92505525 22.14302242 122.91235352 18.7888031 C122.90872205 16.73932952 122.90537019 14.68985542 122.90234375 12.64038086 C122.89717743 11.70367554 122.89201111 10.76697021 122.88668823 9.80187988 C122.88661774 8.94529282 122.88654724 8.08870575 122.88647461 7.2061615 C122.884254 6.46193908 122.88203339 5.71771666 122.87974548 4.95094204 C123 3 123 3 124 0 C136.54 0 149.08 0 162 0 C162 60.72 162 121.44 162 184 C142.86 184 123.72 184 104 184 C99.49943013 178.37428767 99.49943013 178.37428767 97.8515625 175.3984375 C97.48861084 174.7482666 97.12565918 174.0980957 96.75170898 173.42822266 C96.37989502 172.75065918 96.00808105 172.0730957 95.625 171.375 C95.23578369 170.67294434 94.84656738 169.97088867 94.44555664 169.24755859 C93.66264241 167.8335015 92.88176394 166.41831518 92.10302734 165.00195312 C91.10435391 163.18939841 90.09387112 161.38336274 89.08203125 159.578125 C88.53933594 158.60359375 87.99664063 157.6290625 87.4375 156.625 C86.96183594 155.77164063 86.48617188 154.91828125 85.99609375 154.0390625 C85 152 85 152 85 150 C84.34 149.67 83.68 149.34 83 149 C81.74560264 146.83112591 80.57694068 144.66593156 79.4375 142.4375 C76.03822067 135.90441039 72.48414841 129.47903368 68.79467773 123.10522461 C66 118.21530888 66 118.21530888 66 116 C65.34 115.67 64.68 115.34 64 115 C59.54439231 108.2362038 55.90783565 100.97366917 52.35546875 93.70703125 C51.18654555 91.37255351 49.95108392 89.12236328 48.625 86.875 C47 84 47 84 47 82 C46.01 81.505 46.01 81.505 45 81 C43.35 78.03 41.7 75.06 40 72 C39.67 108.96 39.34 145.92 39 184 C2 184 2 184 0 183 C0 122.61 0 62.22 0 0 Z M123 110 C124 112 124 112 124 112 Z " fill="#009999" transform="translate(1400,752)"/>
<path d="M0 0 C44.88 0 89.76 0 136 0 C136 11.55 136 23.1 136 35 C109.27 35 82.54 35 55 35 C55.495 39.455 55.495 39.455 56 44 C56 53.57 56 63.14 56 73 C90.155 73.495 90.155 73.495 125 74 C126.12695254 85.26952542 126.12695254 85.26952542 126.1328125 89.53515625 C126.13410156 90.44587891 126.13539063 91.35660156 126.13671875 92.29492188 C126.13285156 93.20822266 126.12898437 94.12152344 126.125 95.0625 C126.12886719 96.01060547 126.13273438 96.95871094 126.13671875 97.93554688 C126.13542969 98.83466797 126.13414062 99.73378906 126.1328125 100.66015625 C126.13168457 101.47105713 126.13055664 102.28195801 126.12939453 103.11743164 C126 105 126 105 125 106 C122.82194281 106.09429342 120.6407872 106.11742538 118.46069336 106.11352539 C117.77779739 106.11367142 117.09490143 106.11381744 116.39131165 106.1139679 C114.12412386 106.11326876 111.85701726 106.1054764 109.58984375 106.09765625 C108.02185613 106.09579207 106.45386793 106.09436817 104.88587952 106.09336853 C100.75123497 106.08954334 96.61662534 106.07971306 92.48199463 106.06866455 C88.26599602 106.05845044 84.04999178 106.05387091 79.83398438 106.04882812 C71.55597353 106.03809079 63.2779911 106.02101436 55 106 C55.16233124 107.07867844 55.32466248 108.15735687 55.49191284 109.26872253 C56.01341258 113.09849897 56.12943752 116.74965767 56.1328125 120.61328125 C56.13376923 121.30890671 56.13472595 122.00453217 56.13571167 122.72123718 C56.1363871 124.17752168 56.13457765 125.63380931 56.13037109 127.09008789 C56.12497269 129.32379819 56.1303584 131.55731115 56.13671875 133.79101562 C56.13605865 135.21093794 56.13477891 136.63086014 56.1328125 138.05078125 C56.13168457 139.33637939 56.13055664 140.62197754 56.12939453 141.9465332 C56 145 56 145 55 147 C82.39 147 109.78 147 138 147 C138 159.21 138 171.42 138 184 C120.31960851 184.06767979 102.63932727 184.12296002 84.95884228 184.15543652 C76.74977677 184.17091567 68.54079736 184.19202511 60.33178711 184.22631836 C53.17810663 184.25618875 46.0244885 184.27556738 38.87074739 184.28226548 C35.08169833 184.28618178 31.29282765 184.29540712 27.50383568 184.31719017 C23.9391303 184.33751819 20.37467719 184.34384137 16.80991936 184.33932304 C14.8745795 184.34054484 12.93926725 184.35670626 11.0039978 184.3732605 C9.28132439 184.36707451 9.28132439 184.36707451 7.52384949 184.36076355 C6.5237041 184.36352893 5.52355871 184.36629431 4.49310589 184.36914349 C2 184 2 184 0.1777277 182.92108631 C-1.64628803 179.94578764 -1.37138434 177.36738235 -1.36749268 173.90185547 C-1.37076152 173.17453657 -1.37403036 172.44721767 -1.37739825 171.69785881 C-1.38469702 169.25409128 -1.370505 166.81091867 -1.35644531 164.3671875 C-1.35723593 162.61793923 -1.35933241 160.86869112 -1.36264038 159.1194458 C-1.36778275 154.36329189 -1.35422226 149.60735365 -1.33711338 144.85123444 C-1.32209949 139.87983214 -1.32325193 134.9084329 -1.32244873 129.93701172 C-1.31875387 121.58752755 -1.30377572 113.23812548 -1.28125 104.88867188 C-1.25237671 94.16440804 -1.24202711 83.44021035 -1.2375679 72.71591187 C-1.23359004 63.50596556 -1.22108743 54.29603369 -1.20722103 45.08609772 C-1.20311927 42.12085503 -1.20019503 39.15561285 -1.19742584 36.19036865 C-1.19253685 31.53485903 -1.18234015 26.87938961 -1.16798782 22.22389984 C-1.16346046 20.51262526 -1.16062513 18.80134526 -1.15958023 17.090065 C-1.15783758 14.75938429 -1.14996272 12.42880456 -1.14044189 10.09814453 C-1.1359799 8.13918747 -1.1359799 8.13918747 -1.13142776 6.14065552 C-1 3 -1 3 0 0 Z " fill="#009999" transform="translate(799,752)"/>
<path d="M0 0 C44.88 0 89.76 0 136 0 C136 11.55 136 23.1 136 35 C109.27 35 82.54 35 55 35 C55 47.87 55 60.74 55 74 C78.43 74 101.86 74 126 74 C126.33 84.23 126.66 94.46 127 105 C126 106 126 106 123.18431091 106.12025452 C121.29568077 106.1169236 121.29568077 106.1169236 119.36889648 106.11352539 C118.67624695 106.11367142 117.98359741 106.11381744 117.2699585 106.1139679 C114.97030554 106.11326874 112.67073263 106.10547628 110.37109375 106.09765625 C108.78068588 106.09579208 107.19027743 106.09436817 105.59986877 106.09336853 C101.4060407 106.08954329 97.21224705 106.07971295 93.01843262 106.06866455 C87.99076295 106.05665597 82.96308181 106.05204822 77.93540192 106.04621124 C70.29024398 106.03650119 62.64516162 106.01734471 55 106 C55 119.53 55 133.06 55 147 C82.39 147 109.78 147 138 147 C138 159.21 138 171.42 138 184 C92.79 184 47.58 184 1 184 C0.12252182 179.61260908 -0.12336555 176.04263799 -0.12025452 171.60319519 C-0.12110894 170.86796719 -0.12196337 170.1327392 -0.12284368 169.37523156 C-0.12448791 166.91704022 -0.11899444 164.45891745 -0.11352539 162.00073242 C-0.11324326 160.23647056 -0.11340175 158.47220857 -0.1139679 156.70794678 C-0.11425488 151.92119515 -0.1083741 147.13446857 -0.10139394 142.34772277 C-0.09514397 137.34422797 -0.0945553 132.3407326 -0.09336853 127.3372345 C-0.09026007 117.86362422 -0.0820532 108.39002548 -0.07201904 98.91642028 C-0.05875321 86.11386691 -0.05335408 73.31131038 -0.04751682 60.50875187 C-0.03811301 40.33915927 -0.01819083 20.16959102 0 0 Z " fill="#009999" transform="translate(1233,752)"/>
<path d="M0 0 C0.77034576 -0.00328308 1.54069153 -0.00656616 2.3343811 -0.00994873 C19.86754656 -0.0339994 36.71377371 2.05344343 53.75 6.3125 C53.75 18.5225 53.75 30.7325 53.75 43.3125 C48.92164231 42.10541058 44.37570567 40.91302795 39.6875 39.375 C23.86684088 34.43910169 5.99471469 30.47236154 -10.25 35.3125 C-10.97316406 35.51875 -11.69632813 35.725 -12.44140625 35.9375 C-17.04112242 37.42838406 -19.77295985 38.95290934 -22.25 43.3125 C-23.24572035 47.02985598 -23.61346614 49.29479481 -22.3125 52.9375 C-17.0770222 58.96623202 -8.91406883 62.05340732 -1.8125 65.375 C-0.82403076 65.84397705 0.16443848 66.3129541 1.18286133 66.79614258 C5.47077847 68.83033988 9.76428815 70.85217198 14.06445312 72.86035156 C46.04908913 87.80091407 46.04908913 87.80091407 56.75 99.3125 C56.75 99.9725 56.75 100.6325 56.75 101.3125 C57.41 101.3125 58.07 101.3125 58.75 101.3125 C59.54275148 102.7285599 60.33415312 104.14537553 61.125 105.5625 C61.56585937 106.35140625 62.00671875 107.1403125 62.4609375 107.953125 C62.88632812 108.73171875 63.31171875 109.5103125 63.75 110.3125 C64.13414062 111.00859375 64.51828125 111.7046875 64.9140625 112.421875 C65.75 114.3125 65.75 114.3125 65.75 117.3125 C66.41 117.6425 67.07 117.9725 67.75 118.3125 C71.35024973 134.15359883 67.43389417 146.7831894 59.75 160.3125 C59.41742187 161.04984375 59.08484375 161.7871875 58.7421875 162.546875 C57.45167428 164.84337884 55.83156175 166.19432849 53.8125 167.875 C50.86693957 170.34440133 50.86693957 170.34440133 48.12109375 173.02734375 C46.75 174.3125 46.75 174.3125 44.75 174.3125 C44.75 174.9725 44.75 175.6325 44.75 176.3125 C43.56921875 176.86679687 42.3884375 177.42109375 41.171875 177.9921875 C39.61457126 178.72393263 38.05728026 179.45570489 36.5 180.1875 C35.72269531 180.55230469 34.94539062 180.91710937 34.14453125 181.29296875 C33.39042969 181.64746094 32.63632812 182.00195312 31.859375 182.3671875 C30.82248535 182.85421143 30.82248535 182.85421143 29.76464844 183.35107422 C28.37235695 184.01550028 26.98928337 184.69946719 25.61425781 185.39892578 C22.18829558 187.07780879 18.46937162 187.57232153 14.75 188.3125 C13.48953857 188.57196411 13.48953857 188.57196411 12.20361328 188.83666992 C3.67739917 190.44033473 -4.73038494 190.66605148 -13.375 190.625 C-14.47968628 190.62376129 -14.47968628 190.62376129 -15.60668945 190.62249756 C-34.59052279 190.5738447 -55.2593845 189.9406215 -73.25 183.3125 C-74.02800681 178.51254797 -74.36851665 173.92687936 -74.34765625 169.06640625 C-74.3462413 168.41042953 -74.34482635 167.75445282 -74.34336853 167.07859802 C-74.33783031 165.01068298 -74.32529002 162.94288158 -74.3125 160.875 C-74.30747699 159.46159012 -74.3029155 158.04817852 -74.29882812 156.63476562 C-74.28788126 153.19397432 -74.27066038 149.75324828 -74.25 146.3125 C-69.28757773 145.09160787 -65.7185026 146.07319292 -60.9375 147.5625 C-41.54080115 153.27008897 -13.00180704 160.57129508 5.75 150.375 C10.1170981 147.52333975 10.1170981 147.52333975 12.5 143.125 C12.83591785 139.34592414 12.93904113 135.95347686 11.75 132.3125 C6.5342832 126.724232 -0.06359853 124.5911151 -7.25 122.3125 C-7.25 121.6525 -7.25 120.9925 -7.25 120.3125 C-7.82105469 120.16554688 -8.39210938 120.01859375 -8.98046875 119.8671875 C-15.49898522 118.06397309 -21.39473098 115.49309067 -27.46484375 112.51953125 C-30.20285992 111.11367822 -30.20285992 111.11367822 -33.25 111.3125 C-33.25 110.6525 -33.25 109.9925 -33.25 109.3125 C-35.1371875 108.755625 -35.1371875 108.755625 -37.0625 108.1875 C-42.84772767 106.28058578 -47.99199902 103.34936412 -53.25 100.3125 C-53.25 99.6525 -53.25 98.9925 -53.25 98.3125 C-53.78625 98.085625 -54.3225 97.85875 -54.875 97.625 C-65.26129886 91.88520326 -71.22188833 81.14845329 -75.25 70.3125 C-76.51239807 64.89874355 -76.50975001 59.59773248 -76.5625 54.0625 C-76.59150391 53.06347656 -76.62050781 52.06445312 -76.65039062 51.03515625 C-76.70863597 44.18012764 -75.55626732 39.30355013 -72.25 33.3125 C-71.74339844 32.3328125 -71.23679687 31.353125 -70.71484375 30.34375 C-61.83918347 15.63421583 -46.47667532 7.1852717 -30.1875 2.875 C-20.12833383 0.39633254 -10.29781109 0.03574634 0 0 Z " fill="#009999" transform="translate(610.25,748.6875)"/>
<path d="M0 0 C1.12050247 -0.00492462 1.12050247 -0.00492462 2.26364136 -0.00994873 C19.94771609 -0.03494189 37.01720879 2.33156384 54.25 6.3125 C55.25013174 10.45491416 55.36516542 14.32730304 55.34765625 18.58203125 C55.34553383 19.60353523 55.34553383 19.60353523 55.34336853 20.64567566 C55.33780298 22.80549647 55.32525703 24.96521089 55.3125 27.125 C55.30748054 28.59570162 55.30291841 30.06640488 55.29882812 31.53710938 C55.28784488 35.1289404 55.27060422 38.7207098 55.25 42.3125 C52.48175082 43.69662459 50.90924122 42.7080709 48.09667969 41.7746582 C47.40477539 41.539646 46.71287109 41.30463379 46 41.0625 C38.49968008 38.61788243 31.00664445 36.78121374 23.25 35.3125 C22.23292969 35.10625 21.21585938 34.9 20.16796875 34.6875 C7.4611273 32.2893543 -6.4115558 31.70608637 -17.9296875 38.62109375 C-20.02256968 40.30841742 -21.54312459 41.89874919 -22.75 44.3125 C-23.01426552 47.8140181 -22.98971238 50.59336286 -21.875 53.9375 C-18.4918246 57.71869604 -14.34439535 59.27231291 -9.75 61.3125 C-8.23544929 61.9903767 -6.72114659 62.66880766 -5.20703125 63.34765625 C-2.63571951 64.4999923 -0.06432313 65.65210939 2.50830078 66.80151367 C9.88685515 70.11222824 17.14362185 73.61791029 24.33105469 77.32421875 C25.63412156 77.99531477 26.93955578 78.66182997 28.24707031 79.32421875 C36.16950542 83.3412281 43.42507704 87.56443056 50.25 93.3125 C50.98863281 93.83199219 51.72726562 94.35148438 52.48828125 94.88671875 C53.06964844 95.35722656 53.65101563 95.82773437 54.25 96.3125 C54.25 96.9725 54.25 97.6325 54.25 98.3125 C54.91 98.3125 55.57 98.3125 56.25 98.3125 C65.88919615 109.98196327 69.46610426 121.03084139 69.25 136.3125 C67.91494461 149.46421582 62.22920581 162.47318073 52.0625 171.1875 C50.25 172.3125 50.25 172.3125 48.25 172.3125 C47.92 173.3025 47.59 174.2925 47.25 175.3125 C45.59750513 176.01355843 43.92632417 176.67050351 42.25 177.3125 C40.96661153 178.1050198 39.696717 178.91961084 38.4375 179.75 C33.95924033 182.61439628 29.35331843 184.7190466 24.11157227 185.72143555 C21.94094717 186.16978324 19.78722463 186.70092897 17.64501953 187.26977539 C7.32866117 190.00023482 -2.2310857 190.92662752 -12.875 190.75 C-13.62947418 190.74384674 -14.38394836 190.73769348 -15.1612854 190.73135376 C-28.19482847 190.62344286 -40.9015352 189.56670692 -53.75 187.3125 C-55.36585161 187.04666945 -56.9817361 186.78103865 -58.59765625 186.515625 C-69.16620484 184.70169677 -69.16620484 184.70169677 -72.75 182.3125 C-73.01667539 179.47522675 -73.09791234 176.85866955 -73.04296875 174.0234375 C-73.03872391 173.20501373 -73.03447906 172.38658997 -73.03010559 171.54336548 C-73.01328679 168.92441164 -72.97562974 166.30622198 -72.9375 163.6875 C-72.92245726 161.9140736 -72.90876814 160.14063516 -72.89648438 158.3671875 C-72.86337292 154.0153297 -72.81156952 149.66404449 -72.75 145.3125 C-68.48484844 145.87561626 -64.35983513 146.57533767 -60.1953125 147.65234375 C-24.94848988 156.7422436 -24.94848988 156.7422436 9.4375 148.7265625 C11.55570815 147.07399494 12.31329091 145.816667 13.25 143.3125 C13.93580171 138.16786683 13.93580171 138.16786683 12.12890625 133.53125 C10.87899563 132.0865941 9.56745932 130.69583228 8.25 129.3125 C8.25 128.6525 8.25 127.9925 8.25 127.3125 C7.445625 127.065 6.64125 126.8175 5.8125 126.5625 C2.38017028 125.35817378 -0.86472454 123.95625343 -4.17578125 122.4609375 C-7.12339451 121.14591732 -10.08819616 119.87848249 -13.0625 118.625 C-14.04863281 118.20863281 -15.03476563 117.79226563 -16.05078125 117.36328125 C-18.28799911 116.49235273 -20.40893683 115.81852553 -22.75 115.3125 C-22.75 114.6525 -22.75 113.9925 -22.75 113.3125 C-23.78125 113.209375 -24.8125 113.10625 -25.875 113 C-29.73015093 112.31602161 -32.40175135 111.30550515 -35.75 109.3125 C-36.08 108.6525 -36.41 107.9925 -36.75 107.3125 C-38.08035651 106.96747763 -39.41458452 106.63739135 -40.75 106.3125 C-42.85157503 105.32976867 -44.93399347 104.30545986 -47 103.25 C-48.07765625 102.70214844 -49.1553125 102.15429688 -50.265625 101.58984375 C-51.08546875 101.16832031 -51.9053125 100.74679687 -52.75 100.3125 C-52.75 99.6525 -52.75 98.9925 -52.75 98.3125 C-53.306875 98.044375 -53.86375 97.77625 -54.4375 97.5 C-59.33418749 94.9854848 -62.43335447 92.87895385 -65.5625 88.25 C-66.16707031 87.37214844 -66.77164062 86.49429688 -67.39453125 85.58984375 C-68.75 83.3125 -68.75 83.3125 -68.75 81.3125 C-69.41 80.9825 -70.07 80.6525 -70.75 80.3125 C-71.78515625 78.2734375 -71.78515625 78.2734375 -72.8125 75.6875 C-73.15410156 74.84960938 -73.49570313 74.01171875 -73.84765625 73.1484375 C-77.84770503 60.57685561 -77.51758059 45.66888432 -71.86865234 33.76025391 C-68.74379965 27.75680466 -64.74728123 22.87781285 -59.75 18.3125 C-59.05132813 17.66925781 -58.35265625 17.02601563 -57.6328125 16.36328125 C-41.55445139 2.7879617 -20.25389935 0.07258171 0 0 Z " fill="#009999" transform="translate(1665.75,748.6875)"/>
<path d="M0 0 C0.99261337 0.00222061 1.98522675 0.00444122 3.00791931 0.00672913 C4.12900589 0.00680466 5.25009247 0.00688019 6.40515137 0.00695801 C8.2348069 0.01469994 8.2348069 0.01469994 10.10142517 0.02259827 C11.96377052 0.02472069 11.96377052 0.02472069 13.86373901 0.02688599 C17.16982383 0.03154861 20.47584039 0.04053955 23.78190613 0.05158997 C27.15338042 0.06180625 30.52486175 0.06638407 33.89634705 0.07142639 C40.51550667 0.08248056 47.13463385 0.09923715 53.75376892 0.12025452 C53.77709519 23.96321845 53.79474676 47.80618068 53.80558109 71.64915371 C53.81074463 82.71903298 53.81778842 93.78890518 53.82920837 104.85877991 C53.83915346 114.50356506 53.84562193 124.14834509 53.84785742 133.79313523 C53.84916482 138.90332012 53.85225256 144.01349036 53.85949898 149.12367058 C53.86625643 153.9276801 53.86838645 158.73166885 53.8668766 163.53568268 C53.86715306 165.30423915 53.8691598 167.07279627 53.8729744 168.84134865 C53.87790735 171.24512924 53.8767687 173.64883008 53.87402344 176.0526123 C53.87693628 176.761743 53.87984912 177.4708737 53.88285023 178.2014932 C53.86789013 183.00613331 53.86789013 183.00613331 52.75376892 184.12025452 C51.11279772 184.2293665 49.46716704 184.26931665 47.82261658 184.28138733 C46.77127533 184.29099487 45.71993408 184.30060242 44.63673401 184.3105011 C42.91962723 184.31687592 42.91962723 184.31687592 41.16783142 184.32337952 C39.99997101 184.32907959 38.8321106 184.33477966 37.62886047 184.34065247 C35.15227672 184.35011967 32.67568028 184.35664324 30.19908142 184.36048889 C26.40198375 184.37019517 22.60542691 184.40120348 18.80845642 184.43275452 C16.40741798 184.43928403 14.00637566 184.4445347 11.60533142 184.44837952 C10.46464203 184.46072632 9.32395264 184.47307312 8.1486969 184.48579407 C7.09105133 184.48279297 6.03340576 184.47979187 4.94371033 184.47669983 C4.01184906 184.48034546 3.07998779 184.48399109 2.11988831 184.48774719 C-0.24623108 184.12025452 -0.24623108 184.12025452 -1.87114525 183.04650688 C-3.9202603 180.17605863 -3.65332954 177.32947759 -3.61372375 173.932724 C-3.6169926 173.19582687 -3.62026144 172.45892973 -3.62362933 171.69970238 C-3.63092848 169.2236306 -3.6167358 166.74814589 -3.60267639 164.27210999 C-3.60346699 162.49991251 -3.60556341 160.7277152 -3.60887146 158.95552063 C-3.61401353 154.13752057 -3.60045489 149.31973343 -3.58334446 144.50176764 C-3.56833444 139.46803644 -3.56948314 134.4343083 -3.56867981 129.40055847 C-3.56498524 120.94852552 -3.55000692 112.49657369 -3.52748108 104.04457092 C-3.49858814 93.18110575 -3.48825659 82.31770588 -3.48379898 71.45420647 C-3.47982493 62.13130849 -3.46732312 52.80842482 -3.45345211 43.48553705 C-3.4493462 40.48021 -3.44642413 37.47488346 -3.44365692 34.4695549 C-3.43877699 29.75659734 -3.42859582 25.04367974 -3.4142189 20.33074188 C-3.40968219 18.59605139 -3.40685402 16.86135551 -3.40581131 15.12665939 C-3.40407555 12.76900488 -3.39621922 10.41145164 -3.38667297 8.05381775 C-3.38753946 7.35840626 -3.38840594 6.66299476 -3.38929868 5.9465102 C-3.35397759 0.17955898 -3.35397759 0.17955898 0 0 Z " fill="#009999" transform="translate(704.2462310791016,751.8797454833984)"/>
<path d="" fill="#009A9A" transform="translate(0,0)"/>
<path d="" fill="#009A9A" transform="translate(0,0)"/>
<path d="" fill="#009A9A" transform="translate(0,0)"/>
</svg>